<?xml version="1.0" encoding="UTF-8" standalone="no"?>
<!-- Created with Inkscape (http://www.inkscape.org/) -->

<svg
   xmlns:dc="http://purl.org/dc/elements/1.1/"
   xmlns:cc="http://creativecommons.org/ns#"
   xmlns:rdf="http://www.w3.org/1999/02/22-rdf-syntax-ns#"
   xmlns:svg="http://www.w3.org/2000/svg"
   xmlns="http://www.w3.org/2000/svg"
   xmlns:sodipodi="http://sodipodi.sourceforge.net/DTD/sodipodi-0.dtd"
   xmlns:inkscape="http://www.inkscape.org/namespaces/inkscape"
   width="150"
   height="380"
   viewBox="0 0 150 380"
   version="1.1"
   id="svg384"
   inkscape:version="0.92.3 (2405546, 2018-03-11)"
   sodipodi:docname="MIDICCNew.svg">
  <defs
     id="defs378" />
  <sodipodi:namedview
     id="base"
     pagecolor="#ffffff"
     bordercolor="#666666"
     borderopacity="1.0"
     inkscape:pageopacity="0.0"
     inkscape:pageshadow="2"
     inkscape:zoom="1"
     inkscape:cx="-6.3930204"
     inkscape:cy="233.13906"
     inkscape:document-units="px"
     inkscape:current-layer="layer3"
     showgrid="true"
     units="px"
     inkscape:window-width="1920"
     inkscape:window-height="1017"
     inkscape:window-x="0"
     inkscape:window-y="30"
     inkscape:window-maximized="1"
     objecttolerance="1"
     inkscape:snap-perpendicular="true"
     inkscape:snap-tangential="false"
     inkscape:lockguides="false"
     gridtolerance="1"
     guidetolerance="1">
    <inkscape:grid
       type="xygrid"
       id="grid4222"
       dotted="true"
       spacingx="5"
       spacingy="5"
       color="#ef0000"
       opacity="0.1254902"
       empcolor="#ff0707"
       empopacity="0.24705882" />
  </sodipodi:namedview>
  <metadata
     id="metadata381">
    <rdf:RDF>
      <cc:Work
         rdf:about="">
        <dc:format>image/svg+xml</dc:format>
        <dc:type
           rdf:resource="http://purl.org/dc/dcmitype/StillImage" />
        <dc:title></dc:title>
      </cc:Work>
    </rdf:RDF>
  </metadata>
  <g
     inkscape:label="BG"
     inkscape:groupmode="layer"
     id="layer1"
     transform="translate(0,-196.45831)"
     sodipodi:insensitive="true">
    <path
       inkscape:connector-curvature="0"
       id="path3831"
       d="m 0,196.45831 h 150 v 380 H 0 Z m 0,0"
       style="fill:#e6e6e6;fill-opacity:1;fill-rule:nonzero;stroke:none;stroke-width:1.04513788" />
  </g>
  <g
     inkscape:groupmode="layer"
     id="layer2"
     inkscape:label="SIGNS"
     sodipodi:insensitive="true">
    <g
       aria-label="MIDI-CC"
       transform="translate(0,-8.0812203)"
       style="font-style:normal;font-variant:normal;font-weight:normal;font-stretch:normal;font-size:40px;line-height:1.25;font-family:Jaldi;-inkscape-font-specification:Jaldi;text-align:center;letter-spacing:0px;word-spacing:0px;text-anchor:middle;fill:#000000;fill-opacity:1;stroke:none"
       id="flowRoot93"
       inkscape:label="TITLE">
      <path
         d="m 47.404949,32.187124 q -0.975261,0 -0.975261,-0.510416 V 21.304312 q 0,-0.264323 0.23698,-0.391927 0.236979,-0.136719 0.738281,-0.136719 h 0.856771 q 0.774739,0 1.011718,0.446615 l 2.725261,4.839843 0.136718,0.23698 0.136719,-0.282553 2.74349,-4.79427 q 0.246093,-0.446615 1.020833,-0.446615 h 0.847656 q 0.975261,0 0.975261,0.528646 v 10.372396 q 0,0.510416 -0.975261,0.510416 h -0.473958 q -0.975261,0 -0.975261,-0.510416 V 24.95926 l -0.0638,-0.01823 -2.351562,4.201822 q -0.209635,0.309896 -0.647135,0.309896 h -0.464844 q -0.227865,0 -0.382813,-0.07292 -0.154948,-0.08203 -0.264323,-0.23698 l -2.360677,-4.201822 -0.0638,0.01823 v 6.717448 q 0,0.510416 -0.966145,0.510416 z"
         style="font-size:18.66666603px"
         id="path941"
         inkscape:connector-curvature="0" />
      <path
         d="m 60.976563,32.205353 q -0.492187,0 -0.738281,-0.136718 -0.236979,-0.136719 -0.236979,-0.391927 V 21.304312 q 0,-0.53776 0.97526,-0.53776 h 0.565105 q 0.501302,0 0.729166,0.136718 0.236979,0.136719 0.236979,0.401042 v 10.372396 q 0,0.528645 -0.966145,0.528645 z"
         style="font-size:18.66666603px"
         id="path943"
         inkscape:connector-curvature="0" />
      <path
         d="m 65.342449,32.15978 q -0.33724,0 -0.492188,-0.154948 -0.154948,-0.154947 -0.154948,-0.492187 V 21.45926 q 0,-0.33724 0.154948,-0.483073 0.154948,-0.154948 0.492188,-0.154948 h 3.627604 q 1.667969,0 2.825521,0.65625 1.166666,0.647136 1.759114,1.914063 0.601563,1.266927 0.601563,3.089843 0,1.832031 -0.601563,3.098958 -0.592448,1.266927 -1.759114,1.923177 -1.157552,0.65625 -2.825521,0.65625 z m 3.627604,-2.123697 q 1.294271,0 1.959635,-0.902344 0.665365,-0.911458 0.665365,-2.652344 0,-1.731771 -0.665365,-2.634114 -0.665364,-0.911459 -1.959635,-0.911459 h -1.759115 v 7.100261 z"
         style="font-size:18.66666603px"
         id="path945"
         inkscape:connector-curvature="0" />
      <path
         d="m 76.835938,32.205353 q -0.492187,0 -0.738281,-0.136718 -0.236979,-0.136719 -0.236979,-0.391927 V 21.304312 q 0,-0.53776 0.97526,-0.53776 h 0.565105 q 0.501302,0 0.729166,0.136718 0.236979,0.136719 0.236979,0.401042 v 10.372396 q 0,0.528645 -0.966145,0.528645 z"
         style="font-size:18.66666603px"
         id="path947"
         inkscape:connector-curvature="0" />
      <path
         d="m 80.381511,28.723583 q -0.255208,0 -0.373698,-0.191407 -0.118489,-0.191406 -0.118489,-0.619791 V 27.80301 q 0,-0.428386 0.118489,-0.619792 0.11849,-0.200521 0.373698,-0.200521 h 3.299479 q 0.255209,0 0.364584,0.200521 0.118489,0.191406 0.118489,0.619792 v 0.109375 q 0,0.428385 -0.118489,0.619791 -0.109375,0.191407 -0.364584,0.191407 z"
         style="font-size:18.66666603px"
         id="path949"
         inkscape:connector-curvature="0" />
      <path
         d="m 90.708335,32.296499 q -2.734374,0 -4.03776,-1.421875 -1.294271,-1.421875 -1.294271,-4.420573 0,-5.769531 5.414063,-5.769531 0.738281,0 1.53125,0.145834 0.792968,0.145833 1.321614,0.410156 0.537761,0.255208 0.537761,0.574219 0,0.227864 -0.182292,0.601562 -0.182292,0.364583 -0.4375,0.647136 -0.246094,0.282552 -0.4375,0.282552 -0.04557,0 -0.246094,-0.09115 -0.4375,-0.182292 -0.920573,-0.300781 -0.473958,-0.127605 -1.212239,-0.127605 -1.43099,0 -2.123698,0.911459 -0.683594,0.902343 -0.683594,2.734375 0,1.832031 0.692708,2.761718 0.692709,0.929688 2.078125,0.929688 0.720052,0 1.248698,-0.145834 0.537761,-0.145833 1.048177,-0.373698 0.02734,-0.0091 0.164063,-0.0638 0.136719,-0.0638 0.200521,-0.0638 0.236979,0 0.455729,0.282552 0.21875,0.273438 0.355469,0.628907 0.136718,0.346354 0.136718,0.501302 0,0.446614 -0.601562,0.75651 -0.592448,0.309896 -1.440104,0.464844 -0.838542,0.145833 -1.567709,0.145833 z"
         style="font-size:18.66666603px"
         id="path951"
         inkscape:connector-curvature="0" />
      <path
         d="m 100.73437,32.296499 q -2.73437,0 -4.037756,-1.421875 -1.294271,-1.421875 -1.294271,-4.420573 0,-5.769531 5.414067,-5.769531 0.73828,0 1.53125,0.145834 0.79296,0.145833 1.32161,0.410156 0.53776,0.255208 0.53776,0.574219 0,0.227864 -0.18229,0.601562 -0.18229,0.364583 -0.4375,0.647136 -0.24609,0.282552 -0.4375,0.282552 -0.0456,0 -0.24609,-0.09115 -0.4375,-0.182292 -0.92058,-0.300781 -0.47396,-0.127605 -1.21224,-0.127605 -1.430987,0 -2.123695,0.911459 -0.683594,0.902343 -0.683594,2.734375 0,1.832031 0.692709,2.761718 0.692708,0.929688 2.07812,0.929688 0.72006,0 1.2487,-0.145834 0.53776,-0.145833 1.04818,-0.373698 0.0273,-0.0091 0.16406,-0.0638 0.13672,-0.0638 0.20052,-0.0638 0.23698,0 0.45573,0.282552 0.21875,0.273438 0.35547,0.628907 0.13672,0.346354 0.13672,0.501302 0,0.446614 -0.60156,0.75651 -0.59245,0.309896 -1.44011,0.464844 -0.83854,0.145833 -1.56771,0.145833 z"
         style="font-size:18.66666603px"
         id="path953"
         inkscape:connector-curvature="0" />
    </g>
    <g
       id="g6075"
       inkscape:label="LOGO"
       transform="matrix(0.68404823,0,0,0.68404823,23.696383,122.3224)">
      <path
         inkscape:connector-curvature="0"
         id="path5897"
         d="M 75,355 A 10,10 0 0 0 65,365 H 85 A 10,10 0 0 0 75,355 Z"
         style="fill:#ff6f31;fill-opacity:1" />
      <path
         inkscape:connector-curvature="0"
         id="circle5902"
         d="M 75,357.65234 A 7.3483496,7.3483496 0 0 0 67.652344,365 a 7.3483496,7.3483496 0 0 0 0.992187,3.66992 L 75,365 l 6.353516,3.66797 A 7.3483496,7.3483496 0 0 0 82.347656,365 7.3483496,7.3483496 0 0 0 75,357.65234 Z"
         style="fill:#ffb531;fill-opacity:1;stroke-width:0.73483497" />
      <path
         inkscape:connector-curvature="0"
         id="circle5904"
         d="M 75,360.02734 A 4.9733496,4.9733496 0 0 0 70.027344,365 a 4.9733496,4.9733496 0 0 0 1.457031,3.51562 L 75,365 l 3.515625,3.51562 A 4.9733496,4.9733496 0 0 0 79.972656,365 4.9733496,4.9733496 0 0 0 75,360.02734 Z"
         style="fill:#ffdf31;fill-opacity:1;stroke-width:0.49733496" />
    </g>
  </g>
  <g
     inkscape:groupmode="layer"
     id="layer3"
     inkscape:label="COMPONENTS">
    <path
       sodipodi:nodetypes="cccccccc"
       inkscape:connector-curvature="0"
       id="path1543"
       d="m 122.41244,119.07812 c -7.4688,-1e-5 -13.52345,6.05465 -13.52344,13.52344 -10e-6,7.46879 6.05464,13.52345 13.52344,13.52344 4.2966,-0.006 8.12478,-2.06432 11.08883,-5.29465 l 10.42875,-11.52566 c 1.12333,-1.23612 1.90353,-2.66577 1.90625,-4.30469 -0.002,-3.17052 -2.36348,-5.85302 -5.53321,-5.92383 -5.96338,-0.0251 -11.92737,0.0412 -17.89062,0.002 z"
       style="fill:#ac9d93;fill-opacity:1;stroke:none;stroke-width:0.5;stroke-miterlimit:4;stroke-dasharray:none;stroke-opacity:1" />
    <path
       style="fill:#ac9d93;fill-opacity:1;stroke:none;stroke-width:0.5;stroke-miterlimit:4;stroke-dasharray:none;stroke-opacity:1"
       d="m 87.412437,119.07812 c -7.468794,-1e-5 -13.52345,6.05465 -13.523437,13.52344 -1.3e-5,7.46879 6.054643,13.52345 13.523437,13.52344 4.296598,-0.006 8.124786,-2.06432 11.088829,-5.29465 l 10.428754,-11.52566 c 1.12333,-1.23612 1.90353,-2.66577 1.90625,-4.30469 -0.002,-3.17052 -2.36348,-5.85302 -5.53321,-5.92383 -5.963379,-0.0251 -11.927372,0.0412 -17.890623,0.002 z"
       id="path1541"
       inkscape:connector-curvature="0"
       sodipodi:nodetypes="cccccccc" />
    <path
       sodipodi:nodetypes="cccccccc"
       inkscape:connector-curvature="0"
       id="path1539"
       d="m 52.412437,119.07812 c -7.468794,-1e-5 -13.52345,6.05465 -13.523437,13.52344 -1.3e-5,7.46879 6.054643,13.52345 13.523437,13.52344 4.296598,-0.006 8.124786,-2.06432 11.088829,-5.29465 l 10.42875,-11.52566 c 1.123338,-1.23612 1.903531,-2.66577 1.90625,-4.30469 -0.0021,-3.17052 -2.363479,-5.85302 -5.533204,-5.92383 -5.963381,-0.0251 -11.927374,0.0412 -17.890625,0.002 z"
       style="fill:#ac9d93;fill-opacity:1;stroke:none;stroke-width:0.5;stroke-miterlimit:4;stroke-dasharray:none;stroke-opacity:1" />
    <path
       style="fill:#ac9d93;fill-opacity:1;stroke:none;stroke-width:0.5;stroke-miterlimit:4;stroke-dasharray:none;stroke-opacity:1"
       d="m 17.412109,119.07812 c -7.4687938,-1e-5 -13.5234498,6.05465 -13.5234371,13.52344 -1.27e-5,7.46879 6.0546433,13.52345 13.5234371,13.52344 4.296598,-0.006 8.124786,-2.06432 11.088829,-5.29465 l 10.42875,-11.52566 c 1.123338,-1.23612 1.903531,-2.66577 1.90625,-4.30469 -0.0021,-3.17052 -2.363479,-5.85302 -5.533204,-5.92383 -5.963381,-0.0251 -11.927374,0.0412 -17.890625,0.002 z"
       id="path1532"
       inkscape:connector-curvature="0"
       sodipodi:nodetypes="cccccccc" />
    <g
       transform="matrix(0.4,0,0,0.4,22,70.999998)"
       id="g1241" />
    <rect
       style="fill:#000000;fill-opacity:1;stroke-width:1.08012342"
       id="rect4192"
       width="140"
       height="85"
       x="5"
       y="30"
       ry="10" />
    <path
       style="fill:#ac9d93;fill-opacity:1;stroke:none;stroke-width:0.5;stroke-miterlimit:4;stroke-dasharray:none;stroke-opacity:1"
       d="m 122.41244,149.07812 c -7.4688,-1e-5 -13.52345,6.05465 -13.52344,13.52344 -10e-6,7.46879 6.05464,13.52345 13.52344,13.52344 4.2966,-0.006 8.12478,-2.06432 11.08883,-5.29465 l 10.42875,-11.52566 c 1.12333,-1.23612 1.90353,-2.66577 1.90625,-4.30469 -0.002,-3.17052 -2.36348,-5.85302 -5.53321,-5.92383 -5.96338,-0.0251 -11.92737,0.0412 -17.89062,0.002 z"
       id="path1553"
       inkscape:connector-curvature="0"
       sodipodi:nodetypes="cccccccc" />
    <path
       sodipodi:nodetypes="cccccccc"
       inkscape:connector-curvature="0"
       id="path1555"
       d="m 87.412437,149.07812 c -7.468794,-1e-5 -13.52345,6.05465 -13.523437,13.52344 -1.3e-5,7.46879 6.054643,13.52345 13.523437,13.52344 4.296598,-0.006 8.124786,-2.06432 11.088829,-5.29465 l 10.428754,-11.52566 c 1.12333,-1.23612 1.90353,-2.66577 1.90625,-4.30469 -0.002,-3.17052 -2.36348,-5.85302 -5.53321,-5.92383 -5.963379,-0.0251 -11.927372,0.0412 -17.890623,0.002 z"
       style="fill:#ac9d93;fill-opacity:1;stroke:none;stroke-width:0.5;stroke-miterlimit:4;stroke-dasharray:none;stroke-opacity:1" />
    <path
       style="fill:#ac9d93;fill-opacity:1;stroke:none;stroke-width:0.5;stroke-miterlimit:4;stroke-dasharray:none;stroke-opacity:1"
       d="m 52.412437,149.07812 c -7.468794,-1e-5 -13.52345,6.05465 -13.523437,13.52344 -1.3e-5,7.46879 6.054643,13.52345 13.523437,13.52344 4.296598,-0.006 8.124786,-2.06432 11.088829,-5.29465 l 10.42875,-11.52566 c 1.123338,-1.23612 1.903531,-2.66577 1.90625,-4.30469 -0.0021,-3.17052 -2.363479,-5.85302 -5.533204,-5.92383 -5.963381,-0.0251 -11.927374,0.0412 -17.890625,0.002 z"
       id="path1557"
       inkscape:connector-curvature="0"
       sodipodi:nodetypes="cccccccc" />
    <path
       sodipodi:nodetypes="cccccccc"
       inkscape:connector-curvature="0"
       id="path1559"
       d="m 17.412109,149.07812 c -7.4687938,-1e-5 -13.5234498,6.05465 -13.5234371,13.52344 -1.27e-5,7.46879 6.0546433,13.52345 13.5234371,13.52344 4.296598,-0.006 8.124786,-2.06432 11.088829,-5.29465 l 10.42875,-11.52566 c 1.123338,-1.23612 1.903531,-2.66577 1.90625,-4.30469 -0.0021,-3.17052 -2.363479,-5.85302 -5.533204,-5.92383 -5.963381,-0.0251 -11.927374,0.0412 -17.890625,0.002 z"
       style="fill:#ac9d93;fill-opacity:1;stroke:none;stroke-width:0.5;stroke-miterlimit:4;stroke-dasharray:none;stroke-opacity:1" />
    <path
       style="fill:#ac9d93;fill-opacity:1;stroke:none;stroke-width:0.5;stroke-miterlimit:4;stroke-dasharray:none;stroke-opacity:1"
       d="m 122.41244,179.07812 c -7.4688,-1e-5 -13.52345,6.05465 -13.52344,13.52344 -10e-6,7.46879 6.05464,13.52345 13.52344,13.52344 4.2966,-0.006 8.12478,-2.06432 11.08883,-5.29465 l 10.42875,-11.52566 c 1.12333,-1.23612 1.90353,-2.66577 1.90625,-4.30469 -0.002,-3.17052 -2.36348,-5.85302 -5.53321,-5.92383 -5.96338,-0.0251 -11.92737,0.0412 -17.89062,0.002 z"
       id="path1561"
       inkscape:connector-curvature="0"
       sodipodi:nodetypes="cccccccc" />
    <path
       sodipodi:nodetypes="cccccccc"
       inkscape:connector-curvature="0"
       id="path1563"
       d="m 87.412437,179.07812 c -7.468794,-1e-5 -13.52345,6.05465 -13.523437,13.52344 -1.3e-5,7.46879 6.054643,13.52345 13.523437,13.52344 4.296598,-0.006 8.124786,-2.06432 11.088829,-5.29465 l 10.428754,-11.52566 c 1.12333,-1.23612 1.90353,-2.66577 1.90625,-4.30469 -0.002,-3.17052 -2.36348,-5.85302 -5.53321,-5.92383 -5.963379,-0.0251 -11.927372,0.0412 -17.890623,0.002 z"
       style="fill:#ac9d93;fill-opacity:1;stroke:none;stroke-width:0.5;stroke-miterlimit:4;stroke-dasharray:none;stroke-opacity:1" />
    <path
       style="fill:#ac9d93;fill-opacity:1;stroke:none;stroke-width:0.5;stroke-miterlimit:4;stroke-dasharray:none;stroke-opacity:1"
       d="m 52.412437,179.07812 c -7.468794,-1e-5 -13.52345,6.05465 -13.523437,13.52344 -1.3e-5,7.46879 6.054643,13.52345 13.523437,13.52344 4.296598,-0.006 8.124786,-2.06432 11.088829,-5.29465 l 10.42875,-11.52566 c 1.123338,-1.23612 1.903531,-2.66577 1.90625,-4.30469 -0.0021,-3.17052 -2.363479,-5.85302 -5.533204,-5.92383 -5.963381,-0.0251 -11.927374,0.0412 -17.890625,0.002 z"
       id="path1565"
       inkscape:connector-curvature="0"
       sodipodi:nodetypes="cccccccc" />
    <path
       sodipodi:nodetypes="cccccccc"
       inkscape:connector-curvature="0"
       id="path1567"
       d="m 17.412109,179.07812 c -7.4687938,-1e-5 -13.5234498,6.05465 -13.5234371,13.52344 -1.27e-5,7.46879 6.0546433,13.52345 13.5234371,13.52344 4.296598,-0.006 8.124786,-2.06432 11.088829,-5.29465 l 10.42875,-11.52566 c 1.123338,-1.23612 1.903531,-2.66577 1.90625,-4.30469 -0.0021,-3.17052 -2.363479,-5.85302 -5.533204,-5.92383 -5.963381,-0.0251 -11.927374,0.0412 -17.890625,0.002 z"
       style="fill:#ac9d93;fill-opacity:1;stroke:none;stroke-width:0.5;stroke-miterlimit:4;stroke-dasharray:none;stroke-opacity:1" />
    <path
       sodipodi:nodetypes="cccccccc"
       inkscape:connector-curvature="0"
       id="path1569"
       d="m 122.41244,209.07812 c -7.4688,-1e-5 -13.52345,6.05465 -13.52344,13.52344 -10e-6,7.46879 6.05464,13.52345 13.52344,13.52344 4.2966,-0.006 8.12478,-2.06432 11.08883,-5.29465 l 10.42875,-11.52566 c 1.12333,-1.23612 1.90353,-2.66577 1.90625,-4.30469 -0.002,-3.17052 -2.36348,-5.85302 -5.53321,-5.92383 -5.96338,-0.0251 -11.92737,0.0412 -17.89062,0.002 z"
       style="fill:#ac9d93;fill-opacity:1;stroke:none;stroke-width:0.5;stroke-miterlimit:4;stroke-dasharray:none;stroke-opacity:1" />
    <path
       style="fill:#ac9d93;fill-opacity:1;stroke:none;stroke-width:0.5;stroke-miterlimit:4;stroke-dasharray:none;stroke-opacity:1"
       d="m 87.412437,209.07812 c -7.468794,-1e-5 -13.52345,6.05465 -13.523437,13.52344 -1.3e-5,7.46879 6.054643,13.52345 13.523437,13.52344 4.296598,-0.006 8.124786,-2.06432 11.088829,-5.29465 l 10.428754,-11.52566 c 1.12333,-1.23612 1.90353,-2.66577 1.90625,-4.30469 -0.002,-3.17052 -2.36348,-5.85302 -5.53321,-5.92383 -5.963379,-0.0251 -11.927372,0.0412 -17.890623,0.002 z"
       id="path1571"
       inkscape:connector-curvature="0"
       sodipodi:nodetypes="cccccccc" />
    <path
       sodipodi:nodetypes="cccccccc"
       inkscape:connector-curvature="0"
       id="path1573"
       d="m 52.412437,209.07812 c -7.468794,-1e-5 -13.52345,6.05465 -13.523437,13.52344 -1.3e-5,7.46879 6.054643,13.52345 13.523437,13.52344 4.296598,-0.006 8.124786,-2.06432 11.088829,-5.29465 l 10.42875,-11.52566 c 1.123338,-1.23612 1.903531,-2.66577 1.90625,-4.30469 -0.0021,-3.17052 -2.363479,-5.85302 -5.533204,-5.92383 -5.963381,-0.0251 -11.927374,0.0412 -17.890625,0.002 z"
       style="fill:#ac9d93;fill-opacity:1;stroke:none;stroke-width:0.5;stroke-miterlimit:4;stroke-dasharray:none;stroke-opacity:1" />
    <path
       style="fill:#ac9d93;fill-opacity:1;stroke:none;stroke-width:0.5;stroke-miterlimit:4;stroke-dasharray:none;stroke-opacity:1"
       d="m 17.412109,209.07812 c -7.4687938,-1e-5 -13.5234498,6.05465 -13.5234371,13.52344 -1.27e-5,7.46879 6.0546433,13.52345 13.5234371,13.52344 4.296598,-0.006 8.124786,-2.06432 11.088829,-5.29465 l 10.42875,-11.52566 c 1.123338,-1.23612 1.903531,-2.66577 1.90625,-4.30469 -0.0021,-3.17052 -2.363479,-5.85302 -5.533204,-5.92383 -5.963381,-0.0251 -11.927374,0.0412 -17.890625,0.002 z"
       id="path1575"
       inkscape:connector-curvature="0"
       sodipodi:nodetypes="cccccccc" />
    <path
       sodipodi:nodetypes="cccccccc"
       inkscape:connector-curvature="0"
       id="path1577"
       d="m 122.41244,239.07812 c -7.4688,-1e-5 -13.52345,6.05465 -13.52344,13.52344 -10e-6,7.46879 6.05464,13.52345 13.52344,13.52344 4.2966,-0.006 8.12478,-2.06432 11.08883,-5.29465 l 10.42875,-11.52566 c 1.12333,-1.23612 1.90353,-2.66577 1.90625,-4.30469 -0.002,-3.17052 -2.36348,-5.85302 -5.53321,-5.92383 -5.96338,-0.0251 -11.92737,0.0412 -17.89062,0.002 z"
       style="fill:#ac9d93;fill-opacity:1;stroke:none;stroke-width:0.5;stroke-miterlimit:4;stroke-dasharray:none;stroke-opacity:1" />
    <path
       style="fill:#ac9d93;fill-opacity:1;stroke:none;stroke-width:0.5;stroke-miterlimit:4;stroke-dasharray:none;stroke-opacity:1"
       d="m 87.412437,239.07812 c -7.468794,-1e-5 -13.52345,6.05465 -13.523437,13.52344 -1.3e-5,7.46879 6.054643,13.52345 13.523437,13.52344 4.296598,-0.006 8.124786,-2.06432 11.088829,-5.29465 l 10.428754,-11.52566 c 1.12333,-1.23612 1.90353,-2.66577 1.90625,-4.30469 -0.002,-3.17052 -2.36348,-5.85302 -5.53321,-5.92383 -5.963379,-0.0251 -11.927372,0.0412 -17.890623,0.002 z"
       id="path1579"
       inkscape:connector-curvature="0"
       sodipodi:nodetypes="cccccccc" />
    <path
       sodipodi:nodetypes="cccccccc"
       inkscape:connector-curvature="0"
       id="path1581"
       d="m 52.412437,239.07812 c -7.468794,-1e-5 -13.52345,6.05465 -13.523437,13.52344 -1.3e-5,7.46879 6.054643,13.52345 13.523437,13.52344 4.296598,-0.006 8.124786,-2.06432 11.088829,-5.29465 l 10.42875,-11.52566 c 1.123338,-1.23612 1.903531,-2.66577 1.90625,-4.30469 -0.0021,-3.17052 -2.363479,-5.85302 -5.533204,-5.92383 -5.963381,-0.0251 -11.927374,0.0412 -17.890625,0.002 z"
       style="fill:#ac9d93;fill-opacity:1;stroke:none;stroke-width:0.5;stroke-miterlimit:4;stroke-dasharray:none;stroke-opacity:1" />
    <path
       style="fill:#ac9d93;fill-opacity:1;stroke:none;stroke-width:0.5;stroke-miterlimit:4;stroke-dasharray:none;stroke-opacity:1"
       d="m 17.412109,239.07812 c -7.4687938,-1e-5 -13.5234498,6.05465 -13.5234371,13.52344 -1.27e-5,7.46879 6.0546433,13.52345 13.5234371,13.52344 4.296598,-0.006 8.124786,-2.06432 11.088829,-5.29465 l 10.42875,-11.52566 c 1.123338,-1.23612 1.903531,-2.66577 1.90625,-4.30469 -0.0021,-3.17052 -2.363479,-5.85302 -5.533204,-5.92383 -5.963381,-0.0251 -11.927374,0.0412 -17.890625,0.002 z"
       id="path1583"
       inkscape:connector-curvature="0"
       sodipodi:nodetypes="cccccccc" />
    <path
       sodipodi:nodetypes="cccccccc"
       inkscape:connector-curvature="0"
       id="path1585"
       d="m 122.41244,269.07812 c -7.4688,-1e-5 -13.52345,6.05465 -13.52344,13.52344 -10e-6,7.46879 6.05464,13.52345 13.52344,13.52344 4.2966,-0.006 8.12478,-2.06432 11.08883,-5.29465 l 10.42875,-11.52566 c 1.12333,-1.23612 1.90353,-2.66577 1.90625,-4.30469 -0.002,-3.17052 -2.36348,-5.85302 -5.53321,-5.92383 -5.96338,-0.0251 -11.92737,0.0412 -17.89062,0.002 z"
       style="fill:#ac9d93;fill-opacity:1;stroke:none;stroke-width:0.5;stroke-miterlimit:4;stroke-dasharray:none;stroke-opacity:1" />
    <path
       style="fill:#ac9d93;fill-opacity:1;stroke:none;stroke-width:0.5;stroke-miterlimit:4;stroke-dasharray:none;stroke-opacity:1"
       d="m 87.412437,269.07812 c -7.468794,-1e-5 -13.52345,6.05465 -13.523437,13.52344 -1.3e-5,7.46879 6.054643,13.52345 13.523437,13.52344 4.296598,-0.006 8.124786,-2.06432 11.088829,-5.29465 l 10.428754,-11.52566 c 1.12333,-1.23612 1.90353,-2.66577 1.90625,-4.30469 -0.002,-3.17052 -2.36348,-5.85302 -5.53321,-5.92383 -5.963379,-0.0251 -11.927372,0.0412 -17.890623,0.002 z"
       id="path1587"
       inkscape:connector-curvature="0"
       sodipodi:nodetypes="cccccccc" />
    <path
       sodipodi:nodetypes="cccccccc"
       inkscape:connector-curvature="0"
       id="path1589"
       d="m 52.412437,269.07812 c -7.468794,-1e-5 -13.52345,6.05465 -13.523437,13.52344 -1.3e-5,7.46879 6.054643,13.52345 13.523437,13.52344 4.296598,-0.006 8.124786,-2.06432 11.088829,-5.29465 l 10.42875,-11.52566 c 1.123338,-1.23612 1.903531,-2.66577 1.90625,-4.30469 -0.0021,-3.17052 -2.363479,-5.85302 -5.533204,-5.92383 -5.963381,-0.0251 -11.927374,0.0412 -17.890625,0.002 z"
       style="fill:#ac9d93;fill-opacity:1;stroke:none;stroke-width:0.5;stroke-miterlimit:4;stroke-dasharray:none;stroke-opacity:1" />
    <path
       style="fill:#ac9d93;fill-opacity:1;stroke:none;stroke-width:0.5;stroke-miterlimit:4;stroke-dasharray:none;stroke-opacity:1"
       d="m 17.412109,269.07812 c -7.4687938,-1e-5 -13.5234498,6.05465 -13.5234371,13.52344 -1.27e-5,7.46879 6.0546433,13.52345 13.5234371,13.52344 4.296598,-0.006 8.124786,-2.06432 11.088829,-5.29465 l 10.42875,-11.52566 c 1.123338,-1.23612 1.903531,-2.66577 1.90625,-4.30469 -0.0021,-3.17052 -2.363479,-5.85302 -5.533204,-5.92383 -5.963381,-0.0251 -11.927374,0.0412 -17.890625,0.002 z"
       id="path1591"
       inkscape:connector-curvature="0"
       sodipodi:nodetypes="cccccccc" />
    <path
       style="fill:#ac9d93;fill-opacity:1;stroke:none;stroke-width:0.5;stroke-miterlimit:4;stroke-dasharray:none;stroke-opacity:1"
       d="m 122.41244,299.07812 c -7.4688,-1e-5 -13.52345,6.05465 -13.52344,13.52344 -10e-6,7.46879 6.05464,13.52345 13.52344,13.52344 4.2966,-0.006 8.12478,-2.06432 11.08883,-5.29465 l 10.42875,-11.52566 c 1.12333,-1.23612 1.90353,-2.66577 1.90625,-4.30469 -0.002,-3.17052 -2.36348,-5.85302 -5.53321,-5.92383 -5.96338,-0.0251 -11.92737,0.0412 -17.89062,0.002 z"
       id="path1593"
       inkscape:connector-curvature="0"
       sodipodi:nodetypes="cccccccc" />
    <path
       sodipodi:nodetypes="cccccccc"
       inkscape:connector-curvature="0"
       id="path1595"
       d="m 87.412437,299.07812 c -7.468794,-1e-5 -13.52345,6.05465 -13.523437,13.52344 -1.3e-5,7.46879 6.054643,13.52345 13.523437,13.52344 4.296598,-0.006 8.124786,-2.06432 11.088829,-5.29465 l 10.428754,-11.52566 c 1.12333,-1.23612 1.90353,-2.66577 1.90625,-4.30469 -0.002,-3.17052 -2.36348,-5.85302 -5.53321,-5.92383 -5.963379,-0.0251 -11.927372,0.0412 -17.890623,0.002 z"
       style="fill:#ac9d93;fill-opacity:1;stroke:none;stroke-width:0.5;stroke-miterlimit:4;stroke-dasharray:none;stroke-opacity:1" />
    <path
       style="fill:#ac9d93;fill-opacity:1;stroke:none;stroke-width:0.5;stroke-miterlimit:4;stroke-dasharray:none;stroke-opacity:1"
       d="m 52.412437,299.07812 c -7.468794,-1e-5 -13.52345,6.05465 -13.523437,13.52344 -1.3e-5,7.46879 6.054643,13.52345 13.523437,13.52344 4.296598,-0.006 8.124786,-2.06432 11.088829,-5.29465 l 10.42875,-11.52566 c 1.123338,-1.23612 1.903531,-2.66577 1.90625,-4.30469 -0.0021,-3.17052 -2.363479,-5.85302 -5.533204,-5.92383 -5.963381,-0.0251 -11.927374,0.0412 -17.890625,0.002 z"
       id="path1597"
       inkscape:connector-curvature="0"
       sodipodi:nodetypes="cccccccc" />
    <path
       sodipodi:nodetypes="cccccccc"
       inkscape:connector-curvature="0"
       id="path1599"
       d="m 17.412109,299.07812 c -7.4687938,-1e-5 -13.5234498,6.05465 -13.5234371,13.52344 -1.27e-5,7.46879 6.0546433,13.52345 13.5234371,13.52344 4.296598,-0.006 8.124786,-2.06432 11.088829,-5.29465 l 10.42875,-11.52566 c 1.123338,-1.23612 1.903531,-2.66577 1.90625,-4.30469 -0.0021,-3.17052 -2.363479,-5.85302 -5.533204,-5.92383 -5.963381,-0.0251 -11.927374,0.0412 -17.890625,0.002 z"
       style="fill:#ac9d93;fill-opacity:1;stroke:none;stroke-width:0.5;stroke-miterlimit:4;stroke-dasharray:none;stroke-opacity:1" />
    <path
       sodipodi:nodetypes="cccccccc"
       inkscape:connector-curvature="0"
       id="path1601"
       d="m 122.41244,329.07812 c -7.4688,-1e-5 -13.52345,6.05465 -13.52344,13.52344 -10e-6,7.46879 6.05464,13.52345 13.52344,13.52344 4.2966,-0.006 8.12478,-2.06432 11.08883,-5.29465 l 10.42875,-11.52566 c 1.12333,-1.23612 1.90353,-2.66577 1.90625,-4.30469 -0.002,-3.17052 -2.36348,-5.85302 -5.53321,-5.92383 -5.96338,-0.0251 -11.92737,0.0412 -17.89062,0.002 z"
       style="fill:#ac9d93;fill-opacity:1;stroke:none;stroke-width:0.5;stroke-miterlimit:4;stroke-dasharray:none;stroke-opacity:1" />
    <path
       style="fill:#ac9d93;fill-opacity:1;stroke:none;stroke-width:0.5;stroke-miterlimit:4;stroke-dasharray:none;stroke-opacity:1"
       d="m 87.412437,329.07812 c -7.468794,-1e-5 -13.52345,6.05465 -13.523437,13.52344 -1.3e-5,7.46879 6.054643,13.52345 13.523437,13.52344 4.296598,-0.006 8.124786,-2.06432 11.088829,-5.29465 l 10.428754,-11.52566 c 1.12333,-1.23612 1.90353,-2.66577 1.90625,-4.30469 -0.002,-3.17052 -2.36348,-5.85302 -5.53321,-5.92383 -5.963379,-0.0251 -11.927372,0.0412 -17.890623,0.002 z"
       id="path1603"
       inkscape:connector-curvature="0"
       sodipodi:nodetypes="cccccccc" />
    <path
       sodipodi:nodetypes="cccccccc"
       inkscape:connector-curvature="0"
       id="path1605"
       d="m 52.412437,329.07812 c -7.468794,-1e-5 -13.52345,6.05465 -13.523437,13.52344 -1.3e-5,7.46879 6.054643,13.52345 13.523437,13.52344 4.296598,-0.006 8.124786,-2.06432 11.088829,-5.29465 l 10.42875,-11.52566 c 1.123338,-1.23612 1.903531,-2.66577 1.90625,-4.30469 -0.0021,-3.17052 -2.363479,-5.85302 -5.533204,-5.92383 -5.963381,-0.0251 -11.927374,0.0412 -17.890625,0.002 z"
       style="fill:#ac9d93;fill-opacity:1;stroke:none;stroke-width:0.5;stroke-miterlimit:4;stroke-dasharray:none;stroke-opacity:1" />
    <path
       style="fill:#ac9d93;fill-opacity:1;stroke:none;stroke-width:0.5;stroke-miterlimit:4;stroke-dasharray:none;stroke-opacity:1"
       d="m 17.412109,329.07812 c -7.4687938,-1e-5 -13.5234498,6.05465 -13.5234371,13.52344 -1.27e-5,7.46879 6.0546433,13.52345 13.5234371,13.52344 4.296598,-0.006 8.124786,-2.06432 11.088829,-5.29465 l 10.42875,-11.52566 c 1.123338,-1.23612 1.903531,-2.66577 1.90625,-4.30469 -0.0021,-3.17052 -2.363479,-5.85302 -5.533204,-5.92383 -5.963381,-0.0251 -11.927374,0.0412 -17.890625,0.002 z"
       id="path1607"
       inkscape:connector-curvature="0"
       sodipodi:nodetypes="cccccccc" />
  </g>
</svg>
