<?xml version="1.0" encoding="UTF-8" standalone="no"?>
<!-- Created with Inkscape (http://www.inkscape.org/) -->

<svg
   xmlns:dc="http://purl.org/dc/elements/1.1/"
   xmlns:cc="http://creativecommons.org/ns#"
   xmlns:rdf="http://www.w3.org/1999/02/22-rdf-syntax-ns#"
   xmlns:svg="http://www.w3.org/2000/svg"
   xmlns="http://www.w3.org/2000/svg"
   xmlns:sodipodi="http://sodipodi.sourceforge.net/DTD/sodipodi-0.dtd"
   xmlns:inkscape="http://www.inkscape.org/namespaces/inkscape"
   width="150"
   height="380"
   viewBox="0 0 150 380"
   version="1.1"
   id="svg384"
   inkscape:version="0.92.3 (2405546, 2018-03-11)"
   sodipodi:docname="MIDICCNew.svg">
  <defs
     id="defs378" />
  <sodipodi:namedview
     id="base"
     pagecolor="#ffffff"
     bordercolor="#666666"
     borderopacity="1.0"
     inkscape:pageopacity="0.0"
     inkscape:pageshadow="2"
     inkscape:zoom="4"
     inkscape:cx="40.058932"
     inkscape:cy="330.70196"
     inkscape:document-units="px"
     inkscape:current-layer="layer2"
     showgrid="true"
     units="px"
     inkscape:window-width="1920"
     inkscape:window-height="1017"
     inkscape:window-x="0"
     inkscape:window-y="30"
     inkscape:window-maximized="1"
     objecttolerance="1"
     inkscape:snap-perpendicular="true"
     inkscape:snap-tangential="false"
     inkscape:lockguides="false"
     gridtolerance="1"
     guidetolerance="1">
    <inkscape:grid
       type="xygrid"
       id="grid4222"
       dotted="true"
       spacingx="5"
       spacingy="5"
       color="#ef0000"
       opacity="0.1254902"
       empcolor="#ff0707"
       empopacity="0.24705882" />
  </sodipodi:namedview>
  <metadata
     id="metadata381">
    <rdf:RDF>
      <cc:Work
         rdf:about="">
        <dc:format>image/svg+xml</dc:format>
        <dc:type
           rdf:resource="http://purl.org/dc/dcmitype/StillImage" />
        <dc:title></dc:title>
      </cc:Work>
    </rdf:RDF>
  </metadata>
  <g
     inkscape:label="BG"
     inkscape:groupmode="layer"
     id="layer1"
     transform="translate(0,-196.45831)"
     sodipodi:insensitive="true">
    <path
       inkscape:connector-curvature="0"
       id="path3831"
       d="m 0,196.45831 h 150 v 380 H 0 Z m 0,0"
       style="fill:#e6e6e6;fill-opacity:1;fill-rule:nonzero;stroke:none;stroke-width:1.04513788" />
  </g>
  <g
     inkscape:groupmode="layer"
     id="layer2"
     inkscape:label="SIGNS">
    <path
       style="fill:#ff6f31;fill-opacity:1;stroke:none;stroke-width:2;stroke-linejoin:miter;stroke-miterlimit:4;stroke-dasharray:none;stroke-opacity:1"
       d="M 25,5 A 20,20 0 0 0 5,25 h 20 z"
       id="rect2223"
       inkscape:connector-curvature="0" />
    <g
       id="g6075"
       inkscape:label="LOGO"
       transform="matrix(0.68404823,0,0,0.68404823,23.696383,122.3224)">
      <path
         inkscape:connector-curvature="0"
         id="path5897"
         d="M 75,355 A 10,10 0 0 0 65,365 H 85 A 10,10 0 0 0 75,355 Z"
         style="fill:#ff6f31;fill-opacity:1" />
      <path
         inkscape:connector-curvature="0"
         id="circle5902"
         d="M 75,357.65234 A 7.3483496,7.3483496 0 0 0 67.652344,365 a 7.3483496,7.3483496 0 0 0 0.992187,3.66992 L 75,365 l 6.353516,3.66797 A 7.3483496,7.3483496 0 0 0 82.347656,365 7.3483496,7.3483496 0 0 0 75,357.65234 Z"
         style="fill:#ffb531;fill-opacity:1;stroke-width:0.73483497" />
      <path
         inkscape:connector-curvature="0"
         id="circle5904"
         d="M 75,360.02734 A 4.9733496,4.9733496 0 0 0 70.027344,365 a 4.9733496,4.9733496 0 0 0 1.457031,3.51562 L 75,365 l 3.515625,3.51562 A 4.9733496,4.9733496 0 0 0 79.972656,365 4.9733496,4.9733496 0 0 0 75,360.02734 Z"
         style="fill:#ffdf31;fill-opacity:1;stroke-width:0.49733496" />
    </g>
    <path
       style="fill:#ffb531;fill-opacity:1;stroke:none;stroke-width:1.39895928;stroke-linejoin:miter;stroke-miterlimit:4;stroke-dasharray:1.39895924, 1.39895924;stroke-dashoffset:0;stroke-opacity:1"
       d="M 25,11.009766 A 13.989593,13.989593 0 0 0 11.009766,25 H 25 Z"
       id="circle2554"
       inkscape:connector-curvature="0" />
    <path
       style="fill:#ffdf31;fill-opacity:1;stroke:none;stroke-width:2;stroke-linejoin:miter;stroke-miterlimit:4;stroke-dasharray:none;stroke-opacity:1"
       d="M 25,17.259766 A 7.7395926,7.7395926 0 0 0 17.259766,25 H 25 Z"
       id="rect2567"
       inkscape:connector-curvature="0" />
    <g
       aria-label="CC-32
"
       transform="matrix(1.4718521,0,0,1.4718521,-12.626859,-7.9970295)"
       style="font-style:normal;font-weight:normal;font-size:13.33333302px;line-height:1.25;font-family:sans-serif;letter-spacing:0px;word-spacing:0px;fill:#000000;fill-opacity:1;stroke:none"
       id="flowRoot2583">
      <path
         d="m 33.579427,17.107715 q -1.953125,0 -2.884115,-1.015625 -0.924479,-1.015625 -0.924479,-3.157552 0,-4.1210937 3.867188,-4.1210937 0.527343,0 1.09375,0.1041667 0.566406,0.1041666 0.94401,0.2929687 0.384115,0.1822917 0.384115,0.4101562 0,0.1627605 -0.130209,0.4296871 -0.130208,0.260417 -0.3125,0.46224 -0.175781,0.201823 -0.3125,0.201823 -0.03255,0 -0.175781,-0.0651 -0.3125,-0.130209 -0.657552,-0.214844 -0.338542,-0.09115 -0.865885,-0.09115 -1.022136,0 -1.516927,0.651042 -0.488282,0.644531 -0.488282,1.953125 0,1.308593 0.494792,1.972656 0.494792,0.664062 1.484375,0.664062 0.514323,0 0.891927,-0.104166 0.384115,-0.104167 0.748698,-0.266927 0.01953,-0.0065 0.117187,-0.04557 0.09766,-0.04557 0.14323,-0.04557 0.16927,0 0.32552,0.201823 0.15625,0.195312 0.253907,0.449219 0.09766,0.247395 0.09766,0.358072 0,0.319011 -0.429688,0.540365 -0.423177,0.221354 -1.028645,0.332031 -0.598959,0.104167 -1.119792,0.104167 z"
         style="font-style:normal;font-variant:normal;font-weight:normal;font-stretch:normal;font-size:13.33333302px;line-height:3px;font-family:Jaldi;-inkscape-font-specification:Jaldi"
         id="path2613"
         inkscape:connector-curvature="0" />
      <path
         d="m 40.740885,17.107715 q -1.953125,0 -2.884115,-1.015625 -0.924479,-1.015625 -0.924479,-3.157552 0,-4.1210937 3.867188,-4.1210937 0.527343,0 1.09375,0.1041667 0.566406,0.1041666 0.94401,0.2929687 0.384115,0.1822917 0.384115,0.4101562 0,0.1627605 -0.130209,0.4296871 -0.130208,0.260417 -0.3125,0.46224 -0.175781,0.201823 -0.3125,0.201823 -0.03255,0 -0.175781,-0.0651 -0.3125,-0.130209 -0.657552,-0.214844 -0.338542,-0.09115 -0.865885,-0.09115 -1.022136,0 -1.516927,0.651042 -0.488282,0.644531 -0.488282,1.953125 0,1.308593 0.494792,1.972656 0.494792,0.664062 1.484375,0.664062 0.514323,0 0.891927,-0.104166 0.384115,-0.104167 0.748698,-0.266927 0.01953,-0.0065 0.117187,-0.04557 0.09766,-0.04557 0.14323,-0.04557 0.16927,0 0.32552,0.201823 0.15625,0.195312 0.253907,0.449219 0.09766,0.247395 0.09766,0.358072 0,0.319011 -0.429688,0.540365 -0.423177,0.221354 -1.028645,0.332031 -0.598959,0.104167 -1.119792,0.104167 z"
         style="font-style:normal;font-variant:normal;font-weight:normal;font-stretch:normal;font-size:13.33333302px;line-height:3px;font-family:Jaldi;-inkscape-font-specification:Jaldi"
         id="path2615"
         inkscape:connector-curvature="0" />
      <path
         d="m 44.249999,14.555632 q -0.182291,0 -0.266927,-0.136719 -0.08463,-0.136719 -0.08463,-0.442708 v -0.07813 q 0,-0.30599 0.08463,-0.442709 0.08464,-0.143229 0.266927,-0.143229 h 2.356771 q 0.182292,0 0.260417,0.143229 0.08463,0.136719 0.08463,0.442709 v 0.07813 q 0,0.305989 -0.08463,0.442708 -0.07813,0.136719 -0.260417,0.136719 z"
         style="font-style:normal;font-variant:normal;font-weight:normal;font-stretch:normal;font-size:13.33333302px;line-height:3px;font-family:Jaldi;-inkscape-font-specification:Jaldi"
         id="path2617"
         inkscape:connector-curvature="0" />
      <path
         d="m 50.226562,17.107715 q -0.501302,0 -1.087239,-0.09766 -0.585938,-0.09766 -1.009115,-0.3125 -0.416666,-0.214844 -0.416666,-0.540365 0,-0.117187 0.09115,-0.332031 0.09115,-0.214844 0.221355,-0.377604 0.136718,-0.169271 0.260416,-0.169271 0.07813,0 0.299479,0.110677 0.3125,0.15625 0.631511,0.260417 0.325521,0.09766 0.742187,0.09766 0.520834,0 0.833334,-0.292969 0.3125,-0.299479 0.3125,-0.833333 0,-0.585938 -0.319011,-0.878906 -0.31901,-0.29948 -1.035156,-0.29948 h -0.325521 q -0.182291,0 -0.266927,-0.136718 -0.07813,-0.136719 -0.07813,-0.436198 V 12.65459 q 0,-0.299479 0.07813,-0.436198 0.08464,-0.143229 0.266927,-0.143229 h 0.221354 q 0.553386,0 0.872396,-0.260417 0.319011,-0.260416 0.319011,-0.696614 0,-0.436198 -0.240886,-0.683594 -0.234375,-0.253906 -0.690104,-0.253906 -0.390625,0 -0.638021,0.07813 -0.247396,0.07161 -0.488281,0.188802 -0.07162,0.03906 -0.136719,0.0651 -0.05859,0.02604 -0.104166,0.02604 -0.110678,0 -0.247396,-0.14974 -0.136719,-0.15625 -0.234375,-0.364583 -0.09766,-0.2083336 -0.09766,-0.3645836 0,-0.2799479 0.3125,-0.46875 0.3125,-0.188802 0.820313,-0.2799479 0.514323,-0.097656 1.113281,-0.097656 0.716146,0 1.25,0.2473958 0.540365,0.2473958 0.826823,0.7096354 0.292969,0.4557293 0.292969,1.0742183 0,0.585938 -0.292969,1.035156 -0.286458,0.442709 -0.78776,0.651042 v 0.04557 q 0.670573,0.253906 1.009114,0.800781 0.338542,0.540365 0.338542,1.269531 0,0.755209 -0.332031,1.315105 -0.332032,0.553385 -0.92448,0.852864 -0.592447,0.292969 -1.360677,0.292969 z"
         style="font-style:normal;font-variant:normal;font-weight:normal;font-stretch:normal;font-size:13.33333302px;line-height:3px;font-family:Jaldi;-inkscape-font-specification:Jaldi"
         id="path2619"
         inkscape:connector-curvature="0" />
      <path
         d="m 54.204426,17.010059 q -0.123697,0 -0.227864,-0.364584 -0.09766,-0.364583 -0.09766,-0.657552 0,-0.110677 0.03255,-0.175781 l 2.929687,-3.580729 q 0.442708,-0.553385 0.442708,-1.113281 0,-0.449219 -0.299479,-0.690104 -0.299479,-0.247396 -0.78125,-0.247396 -0.31901,0 -0.566406,0.09766 -0.240885,0.09766 -0.494792,0.260417 -0.08463,0.05859 -0.16276,0.09766 -0.07813,0.03906 -0.130208,0.03906 -0.169271,0 -0.325521,-0.130208 -0.14974,-0.130208 -0.240886,-0.31901 -0.09114,-0.188802 -0.09114,-0.3450524 0,-0.3255208 0.338541,-0.5664062 0.338542,-0.2473959 0.865886,-0.3710938 0.533854,-0.1302083 1.10026,-0.1302083 0.794271,0 1.360677,0.2929687 0.572917,0.2864584 0.865885,0.8007813 0.292969,0.5078127 0.292969,1.1718747 0,0.533854 -0.188802,1.009115 -0.182292,0.47526 -0.514323,0.878906 l -2.174479,2.688802 h 2.669271 q 0.182292,0 0.266927,0.143229 0.08463,0.136719 0.08463,0.436198 v 0.195313 q 0,0.299479 -0.08463,0.442708 -0.08463,0.136719 -0.266927,0.136719 z"
         style="font-style:normal;font-variant:normal;font-weight:normal;font-stretch:normal;font-size:13.33333302px;line-height:3px;font-family:Jaldi;-inkscape-font-specification:Jaldi"
         id="path2621"
         inkscape:connector-curvature="0" />
    </g>
    <g
       aria-label="Sunfire Instruments"
       transform="matrix(0.72668201,0,0,0.72668201,12.003086,2.8460584)"
       style="font-style:normal;font-weight:normal;font-size:13.33333302px;line-height:1.25;font-family:sans-serif;letter-spacing:0px;word-spacing:0px;fill:#000000;fill-opacity:1;stroke:none"
       id="flowRoot2605">
      <path
         d="m 28.630208,30.463184 q -0.65625,0 -1.15625,-0.130209 -0.494791,-0.135416 -0.760416,-0.328125 -0.260417,-0.192708 -0.260417,-0.364583 0,-0.135417 0.09896,-0.333333 0.104167,-0.197917 0.244792,-0.338542 0.140625,-0.145833 0.234375,-0.145833 0.05729,0 0.244792,0.09896 0.28125,0.145833 0.53125,0.234375 0.255208,0.08854 0.583333,0.08854 0.364583,0 0.614583,-0.140625 0.255209,-0.145834 0.255209,-0.505209 0,-0.208333 -0.130209,-0.359375 Q 29,28.088184 28.796875,27.984017 28.59375,27.87985 28.244792,27.739225 L 27.833333,27.562142 Q 27.458333,27.37985 27.1875,27.1611 26.921875,26.94235 26.75,26.582975 26.583333,26.2236 26.583333,25.702767 q 0,-0.635417 0.3125,-1.057292 0.3125,-0.421875 0.8125,-0.619792 0.5,-0.197916 1.072917,-0.197916 0.46875,0 0.848958,0.09896 0.380209,0.09375 0.59375,0.244792 0.21875,0.151041 0.21875,0.302083 0,0.125 -0.08333,0.322917 -0.07813,0.192708 -0.197917,0.338542 -0.119791,0.145833 -0.223958,0.145833 -0.04687,0 -0.166667,-0.05208 -0.192708,-0.07813 -0.390625,-0.125 -0.192708,-0.05208 -0.473958,-0.05208 -0.484375,0 -0.671875,0.15625 -0.1875,0.151042 -0.1875,0.359375 0,0.239584 0.125,0.401042 0.130208,0.161458 0.322917,0.265625 0.197916,0.104167 0.546875,0.239583 0.526041,0.223959 0.859375,0.427084 0.333333,0.197916 0.572916,0.572916 0.244792,0.375 0.244792,0.958334 0,0.713541 -0.302083,1.171875 -0.296875,0.453125 -0.770834,0.65625 -0.46875,0.203125 -1.015625,0.203125 z"
         style="font-style:normal;font-variant:normal;font-weight:normal;font-stretch:normal;font-size:10.66666698px;font-family:Jaldi;-inkscape-font-specification:Jaldi"
         id="path2671"
         inkscape:connector-curvature="0" />
      <path
         d="m 32.786458,30.463184 q -0.697916,0 -1.03125,-0.364584 -0.333333,-0.369791 -0.333333,-1.140625 V 25.81735 q 0,-0.145833 0.135417,-0.21875 0.135416,-0.07292 0.421875,-0.07292 h 0.255208 q 0.286458,0 0.421875,0.07292 0.135417,0.07292 0.135417,0.21875 v 2.932292 q 0,0.286458 0.130208,0.432292 0.130208,0.145833 0.427083,0.145833 0.255209,0 0.442709,-0.161458 0.192708,-0.166667 0.296875,-0.375 V 25.81735 q 0,-0.145833 0.135416,-0.21875 0.135417,-0.07292 0.421875,-0.07292 h 0.255209 q 0.286458,0 0.421875,0.07292 0.135416,0.07292 0.135416,0.21875 v 2.932292 q 0,0.4375 0.02083,0.6875 0.02604,0.244792 0.0625,0.458333 0.02604,0.140625 0.02604,0.197917 0,0.104167 -0.192708,0.171875 -0.192708,0.06771 -0.442708,0.09896 -0.244792,0.03125 -0.395834,0.03125 -0.166666,0 -0.239583,-0.130208 -0.06771,-0.135417 -0.109375,-0.380208 l -0.02604,-0.130209 q -0.21875,0.296875 -0.588541,0.505209 -0.364584,0.203125 -0.786459,0.203125 z"
         style="font-style:normal;font-variant:normal;font-weight:normal;font-stretch:normal;font-size:10.66666698px;font-family:Jaldi;-inkscape-font-specification:Jaldi"
         id="path2673"
         inkscape:connector-curvature="0" />
      <path
         d="m 37.171875,30.400684 q -0.552083,0 -0.552083,-0.291667 v -2.9375 q 0,-0.666667 -0.08854,-1.109375 -0.02604,-0.140625 -0.02604,-0.197917 0,-0.104166 0.192708,-0.166666 0.197917,-0.06771 0.442708,-0.09896 0.25,-0.03125 0.401042,-0.03125 0.161458,0 0.223958,0.119792 0.06771,0.119792 0.119792,0.348958 l 0.03125,0.135417 Q 38.135417,25.87985 38.5,25.676725 q 0.369792,-0.208333 0.791667,-0.208333 0.697917,0 1.03125,0.364583 0.333333,0.364584 0.333333,1.130209 v 3.145833 q 0,0.291667 -0.5625,0.291667 h -0.255208 q -0.552083,0 -0.552083,-0.291667 v -2.9375 q 0,-0.28125 -0.135417,-0.427083 -0.130208,-0.145834 -0.427083,-0.145834 -0.25,0 -0.442709,0.166667 -0.192708,0.166667 -0.291666,0.369792 v 2.973958 q 0,0.291667 -0.5625,0.291667 z"
         style="font-style:normal;font-variant:normal;font-weight:normal;font-stretch:normal;font-size:10.66666698px;font-family:Jaldi;-inkscape-font-specification:Jaldi"
         id="path2675"
         inkscape:connector-curvature="0" />
      <path
         d="m 42.364584,30.400684 q -0.552083,0 -0.552083,-0.291667 v -3.484375 h -0.166667 q -0.145833,0 -0.213542,-0.109375 -0.0625,-0.109375 -0.0625,-0.354167 v -0.15625 q 0,-0.244791 0.0625,-0.354166 0.06771,-0.109375 0.213542,-0.109375 h 0.166667 V 24.8486 q 0,-1.5 1.348958,-1.5 0.927083,0 0.927083,0.453125 0,0.05729 -0.03646,0.223958 -0.03646,0.166667 -0.104167,0.307292 -0.0625,0.135417 -0.145833,0.135417 -0.04167,0 -0.114583,-0.01563 -0.114584,-0.02083 -0.171875,-0.02083 -0.177084,0 -0.255209,0.09375 -0.07813,0.08854 -0.07813,0.302083 v 0.713542 h 0.463542 q 0.145833,0 0.208333,0.109375 0.06771,0.109375 0.06771,0.354166 v 0.15625 q 0,0.244792 -0.06771,0.354167 -0.0625,0.109375 -0.208333,0.109375 h -0.463542 v 3.484375 q 0,0.291667 -0.552083,0.291667 z m 2.708333,-5.65625 q -0.291666,0 -0.427083,-0.07292 -0.130208,-0.07292 -0.130208,-0.223958 v -0.744792 q 0,-0.151042 0.135416,-0.223959 0.135417,-0.07813 0.421875,-0.07813 h 0.260417 q 0.286458,0 0.416667,0.07813 0.135416,0.07292 0.135416,0.223959 v 0.744792 q 0,0.151041 -0.135416,0.223958 -0.130209,0.07292 -0.416667,0.07292 z m 0,5.65625 q -0.557291,0 -0.557291,-0.291667 V 25.81735 q 0,-0.145833 0.135416,-0.21875 0.135417,-0.07292 0.421875,-0.07292 h 0.260417 q 0.286458,0 0.416667,0.07292 0.135416,0.07292 0.135416,0.21875 v 4.291667 q 0,0.291667 -0.552083,0.291667 z"
         style="font-style:normal;font-variant:normal;font-weight:normal;font-stretch:normal;font-size:10.66666698px;font-family:Jaldi;-inkscape-font-specification:Jaldi"
         id="path2677"
         inkscape:connector-curvature="0" />
      <path
         d="m 47.546876,30.400684 q -0.552083,0 -0.552083,-0.291667 v -2.9375 q 0,-0.666667 -0.08854,-1.109375 -0.02604,-0.140625 -0.02604,-0.197917 0,-0.104166 0.192708,-0.166666 0.197917,-0.06771 0.442708,-0.09896 0.25,-0.03125 0.401042,-0.03125 0.161458,0 0.223958,0.119792 0.06771,0.119792 0.119792,0.348958 l 0.03125,0.135417 q 0.177083,-0.322917 0.40625,-0.510417 0.234375,-0.192708 0.598958,-0.192708 0.302084,0 0.416667,0.15625 0.114583,0.151042 0.114583,0.34375 0,0.104167 -0.03646,0.296875 -0.03646,0.1875 -0.104167,0.333333 -0.06771,0.145834 -0.151041,0.145834 -0.05729,0 -0.171875,-0.03125 -0.15625,-0.04167 -0.265625,-0.04167 -0.255209,0 -0.447917,0.145833 -0.1875,0.140625 -0.286458,0.317709 v 2.973958 q 0,0.291667 -0.5625,0.291667 z"
         style="font-style:normal;font-variant:normal;font-weight:normal;font-stretch:normal;font-size:10.66666698px;font-family:Jaldi;-inkscape-font-specification:Jaldi"
         id="path2679"
         inkscape:connector-curvature="0" />
      <path
         d="m 52.619792,30.463184 q -1.21875,0 -1.817709,-0.651042 -0.598958,-0.65625 -0.598958,-1.817708 0,-1.307292 0.598958,-1.916667 0.598959,-0.609375 1.651042,-0.609375 0.697917,0 1.140625,0.317708 0.447917,0.317709 0.651042,0.854167 0.208333,0.536458 0.208333,1.213542 0,0.07813 -0.09375,0.208333 -0.08854,0.130208 -0.203125,0.234375 -0.114583,0.104167 -0.177083,0.104167 h -2.359375 q 0.04687,0.53125 0.3125,0.755208 0.270833,0.21875 0.75,0.21875 0.260416,0 0.46875,-0.05729 0.213541,-0.0625 0.453125,-0.161458 0.145833,-0.06771 0.197916,-0.06771 0.09375,0 0.203125,0.135416 0.114584,0.130209 0.192709,0.302084 0.08333,0.171875 0.08333,0.265625 0,0.213541 -0.291667,0.364583 -0.286458,0.151042 -0.682291,0.229167 -0.390625,0.07813 -0.6875,0.07813 z m 0.5,-2.973959 q 0,-0.427083 -0.166667,-0.682291 -0.166667,-0.260417 -0.5,-0.260417 -0.6875,0 -0.833333,0.942708 z"
         style="font-style:normal;font-variant:normal;font-weight:normal;font-stretch:normal;font-size:10.66666698px;font-family:Jaldi;-inkscape-font-specification:Jaldi"
         id="path2681"
         inkscape:connector-curvature="0" />
      <path
         d="m 58.182293,30.4111 q -0.28125,0 -0.421875,-0.07813 -0.135417,-0.07813 -0.135417,-0.223958 v -5.927084 q 0,-0.307291 0.557292,-0.307291 h 0.322917 q 0.286458,0 0.416666,0.07813 0.135417,0.07813 0.135417,0.229166 v 5.927084 q 0,0.302083 -0.552083,0.302083 z"
         style="font-style:normal;font-variant:normal;font-weight:normal;font-stretch:normal;font-size:10.66666698px;font-family:Jaldi;-inkscape-font-specification:Jaldi"
         id="path2683"
         inkscape:connector-curvature="0" />
      <path
         d="m 60.796876,30.400684 q -0.552083,0 -0.552083,-0.291667 v -2.9375 q 0,-0.666667 -0.08854,-1.109375 -0.02604,-0.140625 -0.02604,-0.197917 0,-0.104166 0.192708,-0.166666 0.197917,-0.06771 0.442708,-0.09896 0.25,-0.03125 0.401042,-0.03125 0.161458,0 0.223958,0.119792 0.06771,0.119792 0.119792,0.348958 l 0.03125,0.135417 q 0.21875,-0.291667 0.583333,-0.494792 0.369792,-0.208333 0.791667,-0.208333 0.697917,0 1.03125,0.364583 0.333333,0.364584 0.333333,1.130209 v 3.145833 q 0,0.291667 -0.5625,0.291667 h -0.255208 q -0.552083,0 -0.552083,-0.291667 v -2.9375 q 0,-0.28125 -0.135417,-0.427083 Q 62.645835,26.5986 62.34896,26.5986 q -0.25,0 -0.442709,0.166667 -0.192708,0.166667 -0.291666,0.369792 v 2.973958 q 0,0.291667 -0.5625,0.291667 z"
         style="font-style:normal;font-variant:normal;font-weight:normal;font-stretch:normal;font-size:10.66666698px;font-family:Jaldi;-inkscape-font-specification:Jaldi"
         id="path2685"
         inkscape:connector-curvature="0" />
      <path
         d="m 66.656253,30.463184 q -0.359375,0 -0.713542,-0.07813 -0.354167,-0.07813 -0.588542,-0.223959 -0.229166,-0.145833 -0.229166,-0.333333 0,-0.114583 0.08333,-0.286458 0.08333,-0.171875 0.197917,-0.296875 0.119791,-0.130209 0.208333,-0.130209 0.04687,0 0.203125,0.07292 0.182292,0.08333 0.348958,0.135417 0.166667,0.05208 0.380209,0.05208 0.265625,0 0.401041,-0.09896 0.135417,-0.09896 0.135417,-0.291667 0,-0.145833 -0.08333,-0.239583 -0.07813,-0.09896 -0.203125,-0.161459 -0.125,-0.0625 -0.354167,-0.151041 l -0.151042,-0.05729 q -0.296875,-0.114583 -0.520833,-0.260417 -0.223958,-0.145833 -0.380208,-0.421875 -0.15625,-0.28125 -0.15625,-0.708333 0,-0.473958 0.203125,-0.8125 0.208333,-0.34375 0.588541,-0.520833 0.380209,-0.182292 0.895834,-0.182292 0.296875,0 0.619791,0.05729 0.322917,0.05729 0.541667,0.177083 0.223958,0.119792 0.223958,0.302083 0,0.104167 -0.06771,0.28125 -0.0625,0.177084 -0.15625,0.3125 -0.09375,0.135417 -0.177083,0.135417 -0.02604,0 -0.145834,-0.04687 -0.161458,-0.06771 -0.3125,-0.104167 -0.145833,-0.04167 -0.338541,-0.04167 -0.489584,0 -0.489584,0.322916 0,0.145834 0.08854,0.25 0.09375,0.104167 0.229167,0.171875 0.135416,0.06771 0.380208,0.161459 0.28125,0.114583 0.348958,0.145833 0.364584,0.182292 0.583334,0.484375 0.223958,0.296875 0.223958,0.796875 0,0.473958 -0.213542,0.833333 -0.213541,0.359375 -0.625,0.557292 -0.411458,0.197917 -0.979166,0.197917 z"
         style="font-style:normal;font-variant:normal;font-weight:normal;font-stretch:normal;font-size:10.66666698px;font-family:Jaldi;-inkscape-font-specification:Jaldi"
         id="path2687"
         inkscape:connector-curvature="0" />
      <path
         d="m 70.734376,30.463184 q -0.661458,0 -1.010416,-0.369792 -0.34375,-0.375 -0.34375,-1.135417 v -2.333333 h -0.145834 q -0.145833,0 -0.213541,-0.109375 -0.0625,-0.109375 -0.0625,-0.354167 v -0.15625 q 0,-0.244791 0.0625,-0.354166 0.06771,-0.109375 0.213541,-0.109375 H 69.38021 L 69.500001,24.6611 q 0.04167,-0.291666 0.5,-0.291666 h 0.291667 q 0.239583,0 0.348958,0.07292 0.114584,0.07292 0.114584,0.21875 v 0.880209 h 0.453125 q 0.145833,0 0.208333,0.109375 0.06771,0.109375 0.06771,0.354166 v 0.15625 q 0,0.244792 -0.06771,0.354167 -0.0625,0.109375 -0.208333,0.109375 H 70.75521 V 28.9736 q 0,0.213542 0.07292,0.307292 0.07813,0.09375 0.255209,0.09375 0.05208,0 0.140625,-0.01563 0.08854,-0.02083 0.109375,-0.02083 0.08333,0 0.145833,0.140625 0.06771,0.135416 0.104167,0.302083 0.04167,0.166667 0.04167,0.223958 0,0.458334 -0.890625,0.458334 z"
         style="font-style:normal;font-variant:normal;font-weight:normal;font-stretch:normal;font-size:10.66666698px;font-family:Jaldi;-inkscape-font-specification:Jaldi"
         id="path2689"
         inkscape:connector-curvature="0" />
      <path
         d="m 72.963544,30.400684 q -0.552083,0 -0.552083,-0.291667 v -2.9375 q 0,-0.666667 -0.08854,-1.109375 -0.02604,-0.140625 -0.02604,-0.197917 0,-0.104166 0.192708,-0.166666 0.197917,-0.06771 0.442708,-0.09896 0.25,-0.03125 0.401042,-0.03125 0.161458,0 0.223958,0.119792 0.06771,0.119792 0.119792,0.348958 l 0.03125,0.135417 q 0.177083,-0.322917 0.40625,-0.510417 0.234375,-0.192708 0.598958,-0.192708 0.302084,0 0.416667,0.15625 0.114583,0.151042 0.114583,0.34375 0,0.104167 -0.03646,0.296875 -0.03646,0.1875 -0.104167,0.333333 -0.06771,0.145834 -0.151041,0.145834 -0.05729,0 -0.171875,-0.03125 -0.15625,-0.04167 -0.265625,-0.04167 -0.255209,0 -0.447917,0.145833 -0.1875,0.140625 -0.286458,0.317709 v 2.973958 q 0,0.291667 -0.5625,0.291667 z"
         style="font-style:normal;font-variant:normal;font-weight:normal;font-stretch:normal;font-size:10.66666698px;font-family:Jaldi;-inkscape-font-specification:Jaldi"
         id="path2691"
         inkscape:connector-curvature="0" />
      <path
         d="m 77.140626,30.463184 q -0.697916,0 -1.03125,-0.364584 -0.333333,-0.369791 -0.333333,-1.140625 V 25.81735 q 0,-0.145833 0.135417,-0.21875 0.135416,-0.07292 0.421875,-0.07292 h 0.255208 q 0.286458,0 0.421875,0.07292 0.135417,0.07292 0.135417,0.21875 v 2.932292 q 0,0.286458 0.130208,0.432292 0.130208,0.145833 0.427083,0.145833 0.255209,0 0.442709,-0.161458 0.192708,-0.166667 0.296875,-0.375 V 25.81735 q 0,-0.145833 0.135416,-0.21875 0.135417,-0.07292 0.421875,-0.07292 h 0.255209 q 0.286458,0 0.421875,0.07292 0.135416,0.07292 0.135416,0.21875 v 2.932292 q 0,0.4375 0.02083,0.6875 0.02604,0.244792 0.0625,0.458333 0.02604,0.140625 0.02604,0.197917 0,0.104167 -0.192708,0.171875 -0.192708,0.06771 -0.442708,0.09896 -0.244792,0.03125 -0.395834,0.03125 -0.166666,0 -0.239583,-0.130208 -0.06771,-0.135417 -0.109375,-0.380208 l -0.02604,-0.130209 q -0.21875,0.296875 -0.588541,0.505209 -0.364584,0.203125 -0.786459,0.203125 z"
         style="font-style:normal;font-variant:normal;font-weight:normal;font-stretch:normal;font-size:10.66666698px;font-family:Jaldi;-inkscape-font-specification:Jaldi"
         id="path2693"
         inkscape:connector-curvature="0" />
      <path
         d="m 86.286461,25.468392 q 0.692708,0 1.020833,0.364583 0.333334,0.364584 0.333334,1.130209 v 3.145833 q 0,0.291667 -0.5625,0.291667 h -0.255209 q -0.552083,0 -0.552083,-0.291667 v -2.9375 q 0,-0.28125 -0.130208,-0.427083 -0.125,-0.145834 -0.421875,-0.145834 -0.260417,0 -0.442709,0.161459 -0.177083,0.15625 -0.286458,0.364583 v 2.984375 q 0,0.291667 -0.557292,0.291667 h -0.260416 q -0.552084,0 -0.552084,-0.291667 v -2.9375 q 0,-0.28125 -0.130208,-0.427083 -0.125,-0.145834 -0.416667,-0.145834 -0.25,0 -0.442708,0.166667 -0.1875,0.166667 -0.286458,0.369792 v 2.973958 q 0,0.291667 -0.5625,0.291667 h -0.255209 q -0.552083,0 -0.552083,-0.291667 v -2.9375 q 0,-0.666667 -0.08854,-1.109375 -0.02604,-0.140625 -0.02604,-0.197917 0,-0.104166 0.192708,-0.166666 0.197917,-0.06771 0.442708,-0.09896 0.25,-0.03125 0.401042,-0.03125 0.161458,0 0.223958,0.119792 0.06771,0.119792 0.119792,0.348958 l 0.03125,0.135417 q 0.21875,-0.296875 0.583333,-0.5 0.364584,-0.203125 0.786459,-0.203125 0.479166,0 0.776041,0.171875 0.302084,0.171875 0.442709,0.53125 0.234375,-0.296875 0.614583,-0.5 0.380208,-0.203125 0.8125,-0.203125 z"
         style="font-style:normal;font-variant:normal;font-weight:normal;font-stretch:normal;font-size:10.66666698px;font-family:Jaldi;-inkscape-font-specification:Jaldi"
         id="path2695"
         inkscape:connector-curvature="0" />
      <path
         d="m 91.057296,30.463184 q -1.21875,0 -1.817709,-0.651042 -0.598958,-0.65625 -0.598958,-1.817708 0,-1.307292 0.598958,-1.916667 0.598959,-0.609375 1.651042,-0.609375 0.697917,0 1.140625,0.317708 0.447917,0.317709 0.651042,0.854167 0.208333,0.536458 0.208333,1.213542 0,0.07813 -0.09375,0.208333 -0.08854,0.130208 -0.203125,0.234375 -0.114583,0.104167 -0.177083,0.104167 h -2.359375 q 0.04687,0.53125 0.3125,0.755208 0.270833,0.21875 0.75,0.21875 0.260416,0 0.46875,-0.05729 0.213541,-0.0625 0.453125,-0.161458 0.145833,-0.06771 0.197916,-0.06771 0.09375,0 0.203125,0.135416 0.114584,0.130209 0.192709,0.302084 0.08333,0.171875 0.08333,0.265625 0,0.213541 -0.291667,0.364583 -0.286458,0.151042 -0.682291,0.229167 -0.390625,0.07813 -0.6875,0.07813 z m 0.5,-2.973959 q 0,-0.427083 -0.166667,-0.682291 -0.166667,-0.260417 -0.5,-0.260417 -0.6875,0 -0.833333,0.942708 z"
         style="font-style:normal;font-variant:normal;font-weight:normal;font-stretch:normal;font-size:10.66666698px;font-family:Jaldi;-inkscape-font-specification:Jaldi"
         id="path2697"
         inkscape:connector-curvature="0" />
      <path
         d="m 94.380208,30.400684 q -0.552083,0 -0.552083,-0.291667 v -2.9375 q 0,-0.666667 -0.08854,-1.109375 -0.02604,-0.140625 -0.02604,-0.197917 0,-0.104166 0.192708,-0.166666 0.197917,-0.06771 0.442708,-0.09896 0.25,-0.03125 0.401042,-0.03125 0.161458,0 0.223958,0.119792 0.06771,0.119792 0.119792,0.348958 l 0.03125,0.135417 q 0.21875,-0.291667 0.583333,-0.494792 0.369792,-0.208333 0.791667,-0.208333 0.697917,0 1.03125,0.364583 0.333333,0.364584 0.333333,1.130209 v 3.145833 q 0,0.291667 -0.5625,0.291667 h -0.255208 q -0.552083,0 -0.552083,-0.291667 v -2.9375 q 0,-0.28125 -0.135417,-0.427083 -0.130208,-0.145834 -0.427083,-0.145834 -0.25,0 -0.442709,0.166667 -0.192708,0.166667 -0.291666,0.369792 v 2.973958 q 0,0.291667 -0.5625,0.291667 z"
         style="font-style:normal;font-variant:normal;font-weight:normal;font-stretch:normal;font-size:10.66666698px;font-family:Jaldi;-inkscape-font-specification:Jaldi"
         id="path2699"
         inkscape:connector-curvature="0" />
      <path
         d="m 100.48438,30.463184 q -0.661458,0 -1.010417,-0.369792 -0.34375,-0.375 -0.34375,-1.135417 V 26.624642 H 98.98438 q -0.145833,0 -0.213542,-0.109375 -0.0625,-0.109375 -0.0625,-0.354167 v -0.15625 q 0,-0.244791 0.0625,-0.354166 0.06771,-0.109375 0.213542,-0.109375 h 0.145833 L 99.250005,24.6611 q 0.04167,-0.291666 0.5,-0.291666 h 0.291665 q 0.23959,0 0.34896,0.07292 0.11458,0.07292 0.11458,0.21875 v 0.880209 h 0.45313 q 0.14583,0 0.20833,0.109375 0.0677,0.109375 0.0677,0.354166 v 0.15625 q 0,0.244792 -0.0677,0.354167 -0.0625,0.109375 -0.20833,0.109375 h -0.45313 V 28.9736 q 0,0.213542 0.0729,0.307292 0.0781,0.09375 0.25521,0.09375 0.0521,0 0.14062,-0.01563 0.0885,-0.02083 0.10938,-0.02083 0.0833,0 0.14583,0.140625 0.0677,0.135416 0.10417,0.302083 0.0417,0.166667 0.0417,0.223958 0,0.458334 -0.89063,0.458334 z"
         style="font-style:normal;font-variant:normal;font-weight:normal;font-stretch:normal;font-size:10.66666698px;font-family:Jaldi;-inkscape-font-specification:Jaldi"
         id="path2701"
         inkscape:connector-curvature="0" />
      <path
         d="m 103.40625,30.463184 q -0.35937,0 -0.71354,-0.07813 -0.35417,-0.07813 -0.58854,-0.223959 -0.22917,-0.145833 -0.22917,-0.333333 0,-0.114583 0.0833,-0.286458 0.0833,-0.171875 0.19791,-0.296875 0.11979,-0.130209 0.20834,-0.130209 0.0469,0 0.20312,0.07292 0.18229,0.08333 0.34896,0.135417 0.16667,0.05208 0.38021,0.05208 0.26562,0 0.40104,-0.09896 0.13542,-0.09896 0.13542,-0.291667 0,-0.145833 -0.0833,-0.239583 -0.0781,-0.09896 -0.20312,-0.161459 -0.125,-0.0625 -0.35417,-0.151041 l -0.15104,-0.05729 q -0.29688,-0.114583 -0.52083,-0.260417 -0.22396,-0.145833 -0.38021,-0.421875 -0.15625,-0.28125 -0.15625,-0.708333 0,-0.473958 0.20312,-0.8125 0.20834,-0.34375 0.58854,-0.520833 0.38021,-0.182292 0.89584,-0.182292 0.29687,0 0.61979,0.05729 0.32292,0.05729 0.54167,0.177083 0.22395,0.119792 0.22395,0.302083 0,0.104167 -0.0677,0.28125 -0.0625,0.177084 -0.15625,0.3125 -0.0937,0.135417 -0.17709,0.135417 -0.026,0 -0.14583,-0.04687 -0.16146,-0.06771 -0.3125,-0.104167 -0.14583,-0.04167 -0.33854,-0.04167 -0.48959,0 -0.48959,0.322916 0,0.145834 0.0886,0.25 0.0937,0.104167 0.22916,0.171875 0.13542,0.06771 0.38021,0.161459 0.28125,0.114583 0.34896,0.145833 0.36458,0.182292 0.58333,0.484375 0.22396,0.296875 0.22396,0.796875 0,0.473958 -0.21354,0.833333 -0.21354,0.359375 -0.625,0.557292 -0.41146,0.197917 -0.97917,0.197917 z"
         style="font-style:normal;font-variant:normal;font-weight:normal;font-stretch:normal;font-size:10.66666698px;font-family:Jaldi;-inkscape-font-specification:Jaldi"
         id="path2703"
         inkscape:connector-curvature="0" />
    </g>
  </g>
  <g
     inkscape:groupmode="layer"
     id="layer3"
     inkscape:label="COMPONENTS"
     sodipodi:insensitive="true">
    <path
       sodipodi:nodetypes="cccccccc"
       inkscape:connector-curvature="0"
       id="path1543"
       d="m 122.41244,119.07812 c -7.4688,-1e-5 -13.52345,6.05465 -13.52344,13.52344 -10e-6,7.46879 6.05464,13.52345 13.52344,13.52344 4.2966,-0.006 8.12478,-2.06432 11.08883,-5.29465 l 10.42875,-11.52566 c 1.12333,-1.23612 1.90353,-2.66577 1.90625,-4.30469 -0.002,-3.17052 -2.36348,-5.85302 -5.53321,-5.92383 -5.96338,-0.0251 -11.92737,0.0412 -17.89062,0.002 z"
       style="fill:#ac9d93;fill-opacity:1;stroke:none;stroke-width:0.5;stroke-miterlimit:4;stroke-dasharray:none;stroke-opacity:1" />
    <path
       style="fill:#ac9d93;fill-opacity:1;stroke:none;stroke-width:0.5;stroke-miterlimit:4;stroke-dasharray:none;stroke-opacity:1"
       d="m 87.412437,119.07812 c -7.468794,-1e-5 -13.52345,6.05465 -13.523437,13.52344 -1.3e-5,7.46879 6.054643,13.52345 13.523437,13.52344 4.296598,-0.006 8.124786,-2.06432 11.088829,-5.29465 l 10.428754,-11.52566 c 1.12333,-1.23612 1.90353,-2.66577 1.90625,-4.30469 -0.002,-3.17052 -2.36348,-5.85302 -5.53321,-5.92383 -5.963379,-0.0251 -11.927372,0.0412 -17.890623,0.002 z"
       id="path1541"
       inkscape:connector-curvature="0"
       sodipodi:nodetypes="cccccccc" />
    <path
       sodipodi:nodetypes="cccccccc"
       inkscape:connector-curvature="0"
       id="path1539"
       d="m 52.412437,119.07812 c -7.468794,-1e-5 -13.52345,6.05465 -13.523437,13.52344 -1.3e-5,7.46879 6.054643,13.52345 13.523437,13.52344 4.296598,-0.006 8.124786,-2.06432 11.088829,-5.29465 l 10.42875,-11.52566 c 1.123338,-1.23612 1.903531,-2.66577 1.90625,-4.30469 -0.0021,-3.17052 -2.363479,-5.85302 -5.533204,-5.92383 -5.963381,-0.0251 -11.927374,0.0412 -17.890625,0.002 z"
       style="fill:#ac9d93;fill-opacity:1;stroke:none;stroke-width:0.5;stroke-miterlimit:4;stroke-dasharray:none;stroke-opacity:1" />
    <path
       style="fill:#ac9d93;fill-opacity:1;stroke:none;stroke-width:0.5;stroke-miterlimit:4;stroke-dasharray:none;stroke-opacity:1"
       d="m 17.412109,119.07812 c -7.4687938,-1e-5 -13.5234498,6.05465 -13.5234371,13.52344 -1.27e-5,7.46879 6.0546433,13.52345 13.5234371,13.52344 4.296598,-0.006 8.124786,-2.06432 11.088829,-5.29465 l 10.42875,-11.52566 c 1.123338,-1.23612 1.903531,-2.66577 1.90625,-4.30469 -0.0021,-3.17052 -2.363479,-5.85302 -5.533204,-5.92383 -5.963381,-0.0251 -11.927374,0.0412 -17.890625,0.002 z"
       id="path1532"
       inkscape:connector-curvature="0"
       sodipodi:nodetypes="cccccccc" />
    <g
       transform="matrix(0.4,0,0,0.4,22,70.999998)"
       id="g1241" />
    <rect
       style="fill:#000000;fill-opacity:1;stroke-width:1.08012342"
       id="rect4192"
       width="140"
       height="85"
       x="5"
       y="30"
       ry="10" />
    <path
       style="fill:#ac9d93;fill-opacity:1;stroke:none;stroke-width:0.5;stroke-miterlimit:4;stroke-dasharray:none;stroke-opacity:1"
       d="m 122.41244,149.07812 c -7.4688,-1e-5 -13.52345,6.05465 -13.52344,13.52344 -10e-6,7.46879 6.05464,13.52345 13.52344,13.52344 4.2966,-0.006 8.12478,-2.06432 11.08883,-5.29465 l 10.42875,-11.52566 c 1.12333,-1.23612 1.90353,-2.66577 1.90625,-4.30469 -0.002,-3.17052 -2.36348,-5.85302 -5.53321,-5.92383 -5.96338,-0.0251 -11.92737,0.0412 -17.89062,0.002 z"
       id="path1553"
       inkscape:connector-curvature="0"
       sodipodi:nodetypes="cccccccc" />
    <path
       sodipodi:nodetypes="cccccccc"
       inkscape:connector-curvature="0"
       id="path1555"
       d="m 87.412437,149.07812 c -7.468794,-1e-5 -13.52345,6.05465 -13.523437,13.52344 -1.3e-5,7.46879 6.054643,13.52345 13.523437,13.52344 4.296598,-0.006 8.124786,-2.06432 11.088829,-5.29465 l 10.428754,-11.52566 c 1.12333,-1.23612 1.90353,-2.66577 1.90625,-4.30469 -0.002,-3.17052 -2.36348,-5.85302 -5.53321,-5.92383 -5.963379,-0.0251 -11.927372,0.0412 -17.890623,0.002 z"
       style="fill:#ac9d93;fill-opacity:1;stroke:none;stroke-width:0.5;stroke-miterlimit:4;stroke-dasharray:none;stroke-opacity:1" />
    <path
       style="fill:#ac9d93;fill-opacity:1;stroke:none;stroke-width:0.5;stroke-miterlimit:4;stroke-dasharray:none;stroke-opacity:1"
       d="m 52.412437,149.07812 c -7.468794,-1e-5 -13.52345,6.05465 -13.523437,13.52344 -1.3e-5,7.46879 6.054643,13.52345 13.523437,13.52344 4.296598,-0.006 8.124786,-2.06432 11.088829,-5.29465 l 10.42875,-11.52566 c 1.123338,-1.23612 1.903531,-2.66577 1.90625,-4.30469 -0.0021,-3.17052 -2.363479,-5.85302 -5.533204,-5.92383 -5.963381,-0.0251 -11.927374,0.0412 -17.890625,0.002 z"
       id="path1557"
       inkscape:connector-curvature="0"
       sodipodi:nodetypes="cccccccc" />
    <path
       sodipodi:nodetypes="cccccccc"
       inkscape:connector-curvature="0"
       id="path1559"
       d="m 17.412109,149.07812 c -7.4687938,-1e-5 -13.5234498,6.05465 -13.5234371,13.52344 -1.27e-5,7.46879 6.0546433,13.52345 13.5234371,13.52344 4.296598,-0.006 8.124786,-2.06432 11.088829,-5.29465 l 10.42875,-11.52566 c 1.123338,-1.23612 1.903531,-2.66577 1.90625,-4.30469 -0.0021,-3.17052 -2.363479,-5.85302 -5.533204,-5.92383 -5.963381,-0.0251 -11.927374,0.0412 -17.890625,0.002 z"
       style="fill:#ac9d93;fill-opacity:1;stroke:none;stroke-width:0.5;stroke-miterlimit:4;stroke-dasharray:none;stroke-opacity:1" />
    <path
       style="fill:#ac9d93;fill-opacity:1;stroke:none;stroke-width:0.5;stroke-miterlimit:4;stroke-dasharray:none;stroke-opacity:1"
       d="m 122.41244,179.07812 c -7.4688,-1e-5 -13.52345,6.05465 -13.52344,13.52344 -10e-6,7.46879 6.05464,13.52345 13.52344,13.52344 4.2966,-0.006 8.12478,-2.06432 11.08883,-5.29465 l 10.42875,-11.52566 c 1.12333,-1.23612 1.90353,-2.66577 1.90625,-4.30469 -0.002,-3.17052 -2.36348,-5.85302 -5.53321,-5.92383 -5.96338,-0.0251 -11.92737,0.0412 -17.89062,0.002 z"
       id="path1561"
       inkscape:connector-curvature="0"
       sodipodi:nodetypes="cccccccc" />
    <path
       sodipodi:nodetypes="cccccccc"
       inkscape:connector-curvature="0"
       id="path1563"
       d="m 87.412437,179.07812 c -7.468794,-1e-5 -13.52345,6.05465 -13.523437,13.52344 -1.3e-5,7.46879 6.054643,13.52345 13.523437,13.52344 4.296598,-0.006 8.124786,-2.06432 11.088829,-5.29465 l 10.428754,-11.52566 c 1.12333,-1.23612 1.90353,-2.66577 1.90625,-4.30469 -0.002,-3.17052 -2.36348,-5.85302 -5.53321,-5.92383 -5.963379,-0.0251 -11.927372,0.0412 -17.890623,0.002 z"
       style="fill:#ac9d93;fill-opacity:1;stroke:none;stroke-width:0.5;stroke-miterlimit:4;stroke-dasharray:none;stroke-opacity:1" />
    <path
       style="fill:#ac9d93;fill-opacity:1;stroke:none;stroke-width:0.5;stroke-miterlimit:4;stroke-dasharray:none;stroke-opacity:1"
       d="m 52.412437,179.07812 c -7.468794,-1e-5 -13.52345,6.05465 -13.523437,13.52344 -1.3e-5,7.46879 6.054643,13.52345 13.523437,13.52344 4.296598,-0.006 8.124786,-2.06432 11.088829,-5.29465 l 10.42875,-11.52566 c 1.123338,-1.23612 1.903531,-2.66577 1.90625,-4.30469 -0.0021,-3.17052 -2.363479,-5.85302 -5.533204,-5.92383 -5.963381,-0.0251 -11.927374,0.0412 -17.890625,0.002 z"
       id="path1565"
       inkscape:connector-curvature="0"
       sodipodi:nodetypes="cccccccc" />
    <path
       sodipodi:nodetypes="cccccccc"
       inkscape:connector-curvature="0"
       id="path1567"
       d="m 17.412109,179.07812 c -7.4687938,-1e-5 -13.5234498,6.05465 -13.5234371,13.52344 -1.27e-5,7.46879 6.0546433,13.52345 13.5234371,13.52344 4.296598,-0.006 8.124786,-2.06432 11.088829,-5.29465 l 10.42875,-11.52566 c 1.123338,-1.23612 1.903531,-2.66577 1.90625,-4.30469 -0.0021,-3.17052 -2.363479,-5.85302 -5.533204,-5.92383 -5.963381,-0.0251 -11.927374,0.0412 -17.890625,0.002 z"
       style="fill:#ac9d93;fill-opacity:1;stroke:none;stroke-width:0.5;stroke-miterlimit:4;stroke-dasharray:none;stroke-opacity:1" />
    <path
       sodipodi:nodetypes="cccccccc"
       inkscape:connector-curvature="0"
       id="path1569"
       d="m 122.41244,209.07812 c -7.4688,-1e-5 -13.52345,6.05465 -13.52344,13.52344 -10e-6,7.46879 6.05464,13.52345 13.52344,13.52344 4.2966,-0.006 8.12478,-2.06432 11.08883,-5.29465 l 10.42875,-11.52566 c 1.12333,-1.23612 1.90353,-2.66577 1.90625,-4.30469 -0.002,-3.17052 -2.36348,-5.85302 -5.53321,-5.92383 -5.96338,-0.0251 -11.92737,0.0412 -17.89062,0.002 z"
       style="fill:#ac9d93;fill-opacity:1;stroke:none;stroke-width:0.5;stroke-miterlimit:4;stroke-dasharray:none;stroke-opacity:1" />
    <path
       style="fill:#ac9d93;fill-opacity:1;stroke:none;stroke-width:0.5;stroke-miterlimit:4;stroke-dasharray:none;stroke-opacity:1"
       d="m 87.412437,209.07812 c -7.468794,-1e-5 -13.52345,6.05465 -13.523437,13.52344 -1.3e-5,7.46879 6.054643,13.52345 13.523437,13.52344 4.296598,-0.006 8.124786,-2.06432 11.088829,-5.29465 l 10.428754,-11.52566 c 1.12333,-1.23612 1.90353,-2.66577 1.90625,-4.30469 -0.002,-3.17052 -2.36348,-5.85302 -5.53321,-5.92383 -5.963379,-0.0251 -11.927372,0.0412 -17.890623,0.002 z"
       id="path1571"
       inkscape:connector-curvature="0"
       sodipodi:nodetypes="cccccccc" />
    <path
       sodipodi:nodetypes="cccccccc"
       inkscape:connector-curvature="0"
       id="path1573"
       d="m 52.412437,209.07812 c -7.468794,-1e-5 -13.52345,6.05465 -13.523437,13.52344 -1.3e-5,7.46879 6.054643,13.52345 13.523437,13.52344 4.296598,-0.006 8.124786,-2.06432 11.088829,-5.29465 l 10.42875,-11.52566 c 1.123338,-1.23612 1.903531,-2.66577 1.90625,-4.30469 -0.0021,-3.17052 -2.363479,-5.85302 -5.533204,-5.92383 -5.963381,-0.0251 -11.927374,0.0412 -17.890625,0.002 z"
       style="fill:#ac9d93;fill-opacity:1;stroke:none;stroke-width:0.5;stroke-miterlimit:4;stroke-dasharray:none;stroke-opacity:1" />
    <path
       style="fill:#ac9d93;fill-opacity:1;stroke:none;stroke-width:0.5;stroke-miterlimit:4;stroke-dasharray:none;stroke-opacity:1"
       d="m 17.412109,209.07812 c -7.4687938,-1e-5 -13.5234498,6.05465 -13.5234371,13.52344 -1.27e-5,7.46879 6.0546433,13.52345 13.5234371,13.52344 4.296598,-0.006 8.124786,-2.06432 11.088829,-5.29465 l 10.42875,-11.52566 c 1.123338,-1.23612 1.903531,-2.66577 1.90625,-4.30469 -0.0021,-3.17052 -2.363479,-5.85302 -5.533204,-5.92383 -5.963381,-0.0251 -11.927374,0.0412 -17.890625,0.002 z"
       id="path1575"
       inkscape:connector-curvature="0"
       sodipodi:nodetypes="cccccccc" />
    <path
       sodipodi:nodetypes="cccccccc"
       inkscape:connector-curvature="0"
       id="path1577"
       d="m 122.41244,239.07812 c -7.4688,-1e-5 -13.52345,6.05465 -13.52344,13.52344 -10e-6,7.46879 6.05464,13.52345 13.52344,13.52344 4.2966,-0.006 8.12478,-2.06432 11.08883,-5.29465 l 10.42875,-11.52566 c 1.12333,-1.23612 1.90353,-2.66577 1.90625,-4.30469 -0.002,-3.17052 -2.36348,-5.85302 -5.53321,-5.92383 -5.96338,-0.0251 -11.92737,0.0412 -17.89062,0.002 z"
       style="fill:#ac9d93;fill-opacity:1;stroke:none;stroke-width:0.5;stroke-miterlimit:4;stroke-dasharray:none;stroke-opacity:1" />
    <path
       style="fill:#ac9d93;fill-opacity:1;stroke:none;stroke-width:0.5;stroke-miterlimit:4;stroke-dasharray:none;stroke-opacity:1"
       d="m 87.412437,239.07812 c -7.468794,-1e-5 -13.52345,6.05465 -13.523437,13.52344 -1.3e-5,7.46879 6.054643,13.52345 13.523437,13.52344 4.296598,-0.006 8.124786,-2.06432 11.088829,-5.29465 l 10.428754,-11.52566 c 1.12333,-1.23612 1.90353,-2.66577 1.90625,-4.30469 -0.002,-3.17052 -2.36348,-5.85302 -5.53321,-5.92383 -5.963379,-0.0251 -11.927372,0.0412 -17.890623,0.002 z"
       id="path1579"
       inkscape:connector-curvature="0"
       sodipodi:nodetypes="cccccccc" />
    <path
       sodipodi:nodetypes="cccccccc"
       inkscape:connector-curvature="0"
       id="path1581"
       d="m 52.412437,239.07812 c -7.468794,-1e-5 -13.52345,6.05465 -13.523437,13.52344 -1.3e-5,7.46879 6.054643,13.52345 13.523437,13.52344 4.296598,-0.006 8.124786,-2.06432 11.088829,-5.29465 l 10.42875,-11.52566 c 1.123338,-1.23612 1.903531,-2.66577 1.90625,-4.30469 -0.0021,-3.17052 -2.363479,-5.85302 -5.533204,-5.92383 -5.963381,-0.0251 -11.927374,0.0412 -17.890625,0.002 z"
       style="fill:#ac9d93;fill-opacity:1;stroke:none;stroke-width:0.5;stroke-miterlimit:4;stroke-dasharray:none;stroke-opacity:1" />
    <path
       style="fill:#ac9d93;fill-opacity:1;stroke:none;stroke-width:0.5;stroke-miterlimit:4;stroke-dasharray:none;stroke-opacity:1"
       d="m 17.412109,239.07812 c -7.4687938,-1e-5 -13.5234498,6.05465 -13.5234371,13.52344 -1.27e-5,7.46879 6.0546433,13.52345 13.5234371,13.52344 4.296598,-0.006 8.124786,-2.06432 11.088829,-5.29465 l 10.42875,-11.52566 c 1.123338,-1.23612 1.903531,-2.66577 1.90625,-4.30469 -0.0021,-3.17052 -2.363479,-5.85302 -5.533204,-5.92383 -5.963381,-0.0251 -11.927374,0.0412 -17.890625,0.002 z"
       id="path1583"
       inkscape:connector-curvature="0"
       sodipodi:nodetypes="cccccccc" />
    <path
       sodipodi:nodetypes="cccccccc"
       inkscape:connector-curvature="0"
       id="path1585"
       d="m 122.41244,269.07812 c -7.4688,-1e-5 -13.52345,6.05465 -13.52344,13.52344 -10e-6,7.46879 6.05464,13.52345 13.52344,13.52344 4.2966,-0.006 8.12478,-2.06432 11.08883,-5.29465 l 10.42875,-11.52566 c 1.12333,-1.23612 1.90353,-2.66577 1.90625,-4.30469 -0.002,-3.17052 -2.36348,-5.85302 -5.53321,-5.92383 -5.96338,-0.0251 -11.92737,0.0412 -17.89062,0.002 z"
       style="fill:#ac9d93;fill-opacity:1;stroke:none;stroke-width:0.5;stroke-miterlimit:4;stroke-dasharray:none;stroke-opacity:1" />
    <path
       style="fill:#ac9d93;fill-opacity:1;stroke:none;stroke-width:0.5;stroke-miterlimit:4;stroke-dasharray:none;stroke-opacity:1"
       d="m 87.412437,269.07812 c -7.468794,-1e-5 -13.52345,6.05465 -13.523437,13.52344 -1.3e-5,7.46879 6.054643,13.52345 13.523437,13.52344 4.296598,-0.006 8.124786,-2.06432 11.088829,-5.29465 l 10.428754,-11.52566 c 1.12333,-1.23612 1.90353,-2.66577 1.90625,-4.30469 -0.002,-3.17052 -2.36348,-5.85302 -5.53321,-5.92383 -5.963379,-0.0251 -11.927372,0.0412 -17.890623,0.002 z"
       id="path1587"
       inkscape:connector-curvature="0"
       sodipodi:nodetypes="cccccccc" />
    <path
       sodipodi:nodetypes="cccccccc"
       inkscape:connector-curvature="0"
       id="path1589"
       d="m 52.412437,269.07812 c -7.468794,-1e-5 -13.52345,6.05465 -13.523437,13.52344 -1.3e-5,7.46879 6.054643,13.52345 13.523437,13.52344 4.296598,-0.006 8.124786,-2.06432 11.088829,-5.29465 l 10.42875,-11.52566 c 1.123338,-1.23612 1.903531,-2.66577 1.90625,-4.30469 -0.0021,-3.17052 -2.363479,-5.85302 -5.533204,-5.92383 -5.963381,-0.0251 -11.927374,0.0412 -17.890625,0.002 z"
       style="fill:#ac9d93;fill-opacity:1;stroke:none;stroke-width:0.5;stroke-miterlimit:4;stroke-dasharray:none;stroke-opacity:1" />
    <path
       style="fill:#ac9d93;fill-opacity:1;stroke:none;stroke-width:0.5;stroke-miterlimit:4;stroke-dasharray:none;stroke-opacity:1"
       d="m 17.412109,269.07812 c -7.4687938,-1e-5 -13.5234498,6.05465 -13.5234371,13.52344 -1.27e-5,7.46879 6.0546433,13.52345 13.5234371,13.52344 4.296598,-0.006 8.124786,-2.06432 11.088829,-5.29465 l 10.42875,-11.52566 c 1.123338,-1.23612 1.903531,-2.66577 1.90625,-4.30469 -0.0021,-3.17052 -2.363479,-5.85302 -5.533204,-5.92383 -5.963381,-0.0251 -11.927374,0.0412 -17.890625,0.002 z"
       id="path1591"
       inkscape:connector-curvature="0"
       sodipodi:nodetypes="cccccccc" />
    <path
       style="fill:#ac9d93;fill-opacity:1;stroke:none;stroke-width:0.5;stroke-miterlimit:4;stroke-dasharray:none;stroke-opacity:1"
       d="m 122.41244,299.07812 c -7.4688,-1e-5 -13.52345,6.05465 -13.52344,13.52344 -10e-6,7.46879 6.05464,13.52345 13.52344,13.52344 4.2966,-0.006 8.12478,-2.06432 11.08883,-5.29465 l 10.42875,-11.52566 c 1.12333,-1.23612 1.90353,-2.66577 1.90625,-4.30469 -0.002,-3.17052 -2.36348,-5.85302 -5.53321,-5.92383 -5.96338,-0.0251 -11.92737,0.0412 -17.89062,0.002 z"
       id="path1593"
       inkscape:connector-curvature="0"
       sodipodi:nodetypes="cccccccc" />
    <path
       sodipodi:nodetypes="cccccccc"
       inkscape:connector-curvature="0"
       id="path1595"
       d="m 87.412437,299.07812 c -7.468794,-1e-5 -13.52345,6.05465 -13.523437,13.52344 -1.3e-5,7.46879 6.054643,13.52345 13.523437,13.52344 4.296598,-0.006 8.124786,-2.06432 11.088829,-5.29465 l 10.428754,-11.52566 c 1.12333,-1.23612 1.90353,-2.66577 1.90625,-4.30469 -0.002,-3.17052 -2.36348,-5.85302 -5.53321,-5.92383 -5.963379,-0.0251 -11.927372,0.0412 -17.890623,0.002 z"
       style="fill:#ac9d93;fill-opacity:1;stroke:none;stroke-width:0.5;stroke-miterlimit:4;stroke-dasharray:none;stroke-opacity:1" />
    <path
       style="fill:#ac9d93;fill-opacity:1;stroke:none;stroke-width:0.5;stroke-miterlimit:4;stroke-dasharray:none;stroke-opacity:1"
       d="m 52.412437,299.07812 c -7.468794,-1e-5 -13.52345,6.05465 -13.523437,13.52344 -1.3e-5,7.46879 6.054643,13.52345 13.523437,13.52344 4.296598,-0.006 8.124786,-2.06432 11.088829,-5.29465 l 10.42875,-11.52566 c 1.123338,-1.23612 1.903531,-2.66577 1.90625,-4.30469 -0.0021,-3.17052 -2.363479,-5.85302 -5.533204,-5.92383 -5.963381,-0.0251 -11.927374,0.0412 -17.890625,0.002 z"
       id="path1597"
       inkscape:connector-curvature="0"
       sodipodi:nodetypes="cccccccc" />
    <path
       sodipodi:nodetypes="cccccccc"
       inkscape:connector-curvature="0"
       id="path1599"
       d="m 17.412109,299.07812 c -7.4687938,-1e-5 -13.5234498,6.05465 -13.5234371,13.52344 -1.27e-5,7.46879 6.0546433,13.52345 13.5234371,13.52344 4.296598,-0.006 8.124786,-2.06432 11.088829,-5.29465 l 10.42875,-11.52566 c 1.123338,-1.23612 1.903531,-2.66577 1.90625,-4.30469 -0.0021,-3.17052 -2.363479,-5.85302 -5.533204,-5.92383 -5.963381,-0.0251 -11.927374,0.0412 -17.890625,0.002 z"
       style="fill:#ac9d93;fill-opacity:1;stroke:none;stroke-width:0.5;stroke-miterlimit:4;stroke-dasharray:none;stroke-opacity:1" />
    <path
       sodipodi:nodetypes="cccccccc"
       inkscape:connector-curvature="0"
       id="path1601"
       d="m 122.41244,329.07812 c -7.4688,-1e-5 -13.52345,6.05465 -13.52344,13.52344 -10e-6,7.46879 6.05464,13.52345 13.52344,13.52344 4.2966,-0.006 8.12478,-2.06432 11.08883,-5.29465 l 10.42875,-11.52566 c 1.12333,-1.23612 1.90353,-2.66577 1.90625,-4.30469 -0.002,-3.17052 -2.36348,-5.85302 -5.53321,-5.92383 -5.96338,-0.0251 -11.92737,0.0412 -17.89062,0.002 z"
       style="fill:#ac9d93;fill-opacity:1;stroke:none;stroke-width:0.5;stroke-miterlimit:4;stroke-dasharray:none;stroke-opacity:1" />
    <path
       style="fill:#ac9d93;fill-opacity:1;stroke:none;stroke-width:0.5;stroke-miterlimit:4;stroke-dasharray:none;stroke-opacity:1"
       d="m 87.412437,329.07812 c -7.468794,-1e-5 -13.52345,6.05465 -13.523437,13.52344 -1.3e-5,7.46879 6.054643,13.52345 13.523437,13.52344 4.296598,-0.006 8.124786,-2.06432 11.088829,-5.29465 l 10.428754,-11.52566 c 1.12333,-1.23612 1.90353,-2.66577 1.90625,-4.30469 -0.002,-3.17052 -2.36348,-5.85302 -5.53321,-5.92383 -5.963379,-0.0251 -11.927372,0.0412 -17.890623,0.002 z"
       id="path1603"
       inkscape:connector-curvature="0"
       sodipodi:nodetypes="cccccccc" />
    <path
       sodipodi:nodetypes="cccccccc"
       inkscape:connector-curvature="0"
       id="path1605"
       d="m 52.412437,329.07812 c -7.468794,-1e-5 -13.52345,6.05465 -13.523437,13.52344 -1.3e-5,7.46879 6.054643,13.52345 13.523437,13.52344 4.296598,-0.006 8.124786,-2.06432 11.088829,-5.29465 l 10.42875,-11.52566 c 1.123338,-1.23612 1.903531,-2.66577 1.90625,-4.30469 -0.0021,-3.17052 -2.363479,-5.85302 -5.533204,-5.92383 -5.963381,-0.0251 -11.927374,0.0412 -17.890625,0.002 z"
       style="fill:#ac9d93;fill-opacity:1;stroke:none;stroke-width:0.5;stroke-miterlimit:4;stroke-dasharray:none;stroke-opacity:1" />
    <path
       style="fill:#ac9d93;fill-opacity:1;stroke:none;stroke-width:0.5;stroke-miterlimit:4;stroke-dasharray:none;stroke-opacity:1"
       d="m 17.412109,329.07812 c -7.4687938,-1e-5 -13.5234498,6.05465 -13.5234371,13.52344 -1.27e-5,7.46879 6.0546433,13.52345 13.5234371,13.52344 4.296598,-0.006 8.124786,-2.06432 11.088829,-5.29465 l 10.42875,-11.52566 c 1.123338,-1.23612 1.903531,-2.66577 1.90625,-4.30469 -0.0021,-3.17052 -2.363479,-5.85302 -5.533204,-5.92383 -5.963381,-0.0251 -11.927374,0.0412 -17.890625,0.002 z"
       id="path1607"
       inkscape:connector-curvature="0"
       sodipodi:nodetypes="cccccccc" />
  </g>
</svg>
